<?xml version="1.0" standalone="no"?>
<!DOCTYPE svg PUBLIC "-//W3C//DTD SVG 1.1//EN" "http://www.w3.org/Graphics/SVG/1.1/DTD/svg11.dtd" >
<svg xmlns="http://www.w3.org/2000/svg" xmlns:xlink="http://www.w3.org/1999/xlink" version="1.1">
<metadata>
Created by FontForge 20170731 at Mon Apr 25 21:24:09 2016
 By Aleksey,,,
Copyright awesome fonts 2015
</metadata>
<defs>
<font id="AwesomeFreeFont" horiz-adv-x="833" >
  <font-face 
    font-family="Awesome Free Font"
    font-weight="400"
    font-stretch="normal"
    units-per-em="1000"
    panose-1="0 0 0 0 0 0 0 0 0 0"
    ascent="750"
    descent="-250"
    x-height="500"
    cap-height="726"
    bbox="-676 -749.048 1711.8 1092"
    underline-thickness="50"
    underline-position="-150"
    unicode-range="U+0020-2212"
  />
<missing-glyph horiz-adv-x="500" 
 />
    <glyph glyph-name=".notdef" horiz-adv-x="500" 
 />
    <glyph glyph-name=".null" horiz-adv-x="0" 
 />
    <glyph glyph-name="nonmarkingreturn" horiz-adv-x="333" 
 />
    <glyph glyph-name="space" unicode=" " horiz-adv-x="500" 
 />
    <glyph glyph-name="exclam" unicode="!" horiz-adv-x="391" 
d="M324 423q-102 -269 -103 -268q-43 23 -55 60q-22 64 22 189q16 42 95 290q92 10 136 0q7 -1 -95 -271zM197 19q-19 -19 -45 -19q-27 0 -46 19q-18 18 -18 45q0 26 18 45q19 18 46 18q26 0 45 -18q18 -19 18 -45q0 -27 -18 -45z" />
    <glyph glyph-name="quotedbl" unicode="&#x22;" horiz-adv-x="473" 
d="M406 754q21 -21 21 -51q0 -22 -19 -69q-25 -61 -60 -82q-29 -17 -62 -11q-21 3 -31 13q2 6 8 18q6 13 8 12q38 -9 55 7q17 18 20 41q-30 6 -47 25q-18 18 -18 46q0 30 22 51q21 21 51 21t52 -21zM219 754q21 -21 21 -51q0 -22 -19 -69q-25 -61 -59 -82q-29 -17 -63 -11
q-20 3 -30 13q2 6 8 18q6 13 7 12q38 -9 55 7q18 18 20 41q-29 6 -46 25q-18 18 -18 46q0 30 21 51q22 21 51 21q31 0 52 -21z" />
    <glyph glyph-name="numbersign" unicode="#" horiz-adv-x="830" 
d="M368 318q55 0 118 1q19 53 37 104q-59 -2 -116 -4q-18 -46 -39 -101zM804 455q-12 -25 -38 -25q-103 -3 -145 -4q-18 -49 -40 -107q212 1 212 0q-5 -40 -12 -56q-12 -25 -39 -25q-149 -4 -195 -5l-89 -233q-36 20 -48 32q-19 20 -10 45q39 110 55 153q-55 -1 -122 -4
l-86 -226q-37 20 -48 32q-19 20 -11 45q41 113 52 145q-53 -3 -154 -8q-30 51 -37 97q-1 4 225 6q18 50 34 99q-62 -3 -199 -10q-30 51 -37 96q-1 5 268 7q19 58 63 189q58 10 102 0q5 -1 -65 -188q56 0 112 1q19 57 63 187q58 10 102 0q5 -1 -65 -187h164q-5 -40 -12 -56z
" />
    <glyph glyph-name="dollar" unicode="$" horiz-adv-x="582" 
d="M317 117q27 36 31 70q3 34 -20 74q-36 -93 -77 -198q38 18 66 54zM271 569q-28 -50 1 -115q5 -13 14 -26q31 94 67 204q-57 -18 -82 -63zM535 831q3 -1 -25 -81q56 -24 89 -65q35 -45 6 -71q-3 -3 -19 -17q-15 -15 -24 -23q-30 -26 -33 -13q-13 49 -63 69
q-42 -113 -106 -282q91 -80 108 -106q41 -62 -2 -130q-35 -56 -107 -86q-59 -24 -132 -27l-28 -73q-36 19 -51 36q-20 21 -15 46h-3q-2 1 -3 1q-42 12 -67 38q-21 21 -39 60q-38 80 -9 165q18 52 90 121q35 34 67 57q33 -25 48 -51q14 -24 12 -76q-2 -55 -21 -69
q-14 -11 -37 -18q-19 -6 -39 -26q-23 -21 -19 -69q3 -53 43 -77q37 90 107 294q-59 96 -50 202q5 50 58 103q48 48 118 80q10 32 28 88q60 12 118 0z" />
    <glyph glyph-name="percent" unicode="%" horiz-adv-x="598" 
d="M354 354q-134 -354 -135 -354q-8 4 -33 16q-23 10 -35 17q-38 22 -27 45q49 102 218 631q95 10 140 0q6 -1 -128 -355zM128 561q18 -18 42 -18q25 0 43 18q17 17 17 42t-17 43q-18 17 -43 17q-24 0 -42 -17q-18 -18 -18 -43t18 -42zM98 675q30 31 72 31q43 0 73 -31
q30 -29 30 -72q0 -42 -30 -72t-73 -30q-42 0 -72 30t-30 72q0 43 30 72zM401 68q18 -17 43 -17t42 17q18 18 18 43t-18 42q-17 17 -42 17t-43 -17q-17 -17 -17 -42t17 -43zM372 183q29 30 72 30q42 0 72 -30t30 -72q0 -43 -30 -72q-30 -31 -72 -31q-43 0 -72 31
q-30 29 -30 72q0 42 30 72z" />
    <glyph glyph-name="ampersand" unicode="&#x26;" horiz-adv-x="1123" 
d="M807 211q17 33 54 45q30 11 61 5q32 -6 57 -25q56 -44 44 -119q-10 -63 -58 -95q-44 -29 -102 -20q-51 9 -110 114q-16 29 -41 81q-23 46 -29 57q9 -57 -8 -109q-21 -60 -76 -97q-103 -69 -213 -35q-94 29 -146 112q-39 62 -34 142q6 108 106 163q73 40 178 49q10 1 14 2
q-48 42 -79 103q-62 122 24 210q51 53 126 38q72 -15 102 -75q24 -47 10 -90q-13 -39 -49 -63q-42 -28 -84 -21q-37 7 -57 41q-11 19 -13 38q7 -13 18 -22q20 -17 43 -12q31 8 45 37q17 34 -12 70q-14 18 -37 22t-45 -7q-55 -24 -57 -93q-2 -54 47 -126q25 -35 50 -60
q-18 -3 -41 -9q-64 -15 -98 -34q-45 -26 -65 -78q-20 -55 1 -107q40 -100 150 -113q84 -10 131 45q39 46 32 106q-8 68 -67 120q-106 -6 -129 -14q-22 -8 -38 -28q-15 -19 -18 -42q-8 -46 31 -68q45 -24 70 6q9 11 12 26q2 14 -2 21q-16 23 -35 22q-10 -1 -16 -6q3 17 15 31
q25 29 72 18q31 -7 51 -28q18 -20 22 -47t-8 -53q-12 -28 -38 -47q-43 -32 -100 -16q-53 15 -82 57t-20 89q10 50 50 77q37 25 126 45q16 4 27 6q62 12 115 37q14 7 18 18q4 10 -2 18q-5 9 -14 11q-11 3 -20 -5q-10 -8 -8 -21q2 -7 5 -11v0q-7 0 -20 18q-18 23 -8 48
q10 26 28 41q36 28 88 9q50 -17 66 -55q19 -43 -1 -83q-20 -39 -68 -57q-26 -9 -149 -16q32 -30 55 -70q127 -195 154 -219q21 -19 46 -18q25 2 38 20q17 26 4 48q-13 24 -42 13q-26 -9 -25 -32q1 -12 7 -21q-22 6 -34 34q-10 24 5 54z" />
    <glyph glyph-name="quotesingle" unicode="'" horiz-adv-x="269" 
d="M223 756q22 -22 22 -52q0 -23 -19 -71q-26 -62 -61 -83q-30 -18 -64 -11q-21 3 -31 12q2 7 8 19q6 13 7 13q40 -10 57 7q18 17 20 42q-30 6 -47 25q-18 19 -18 47q0 30 21 52q22 22 53 22q30 0 52 -22z" />
    <glyph glyph-name="parenleft" unicode="(" horiz-adv-x="492" 
d="M554 837q17 1 27 -1q-25 -94 -53 -112q-35 -22 -81 -113q-48 -97 -123 -301q-18 -50 -48 -124q-32 -81 -40 -104q-39 -103 -28 -126q14 -29 -7 -97q-11 -34 -24 -62q-10 0 -25 10q-30 20 -52 73q-13 32 -5 81q7 46 34 126q18 56 69 188q67 176 101 268q76 208 187 271
q35 20 68 23z" />
    <glyph glyph-name="parenright" unicode=")" horiz-adv-x="519" 
d="M458 821q23 -25 35 -62q39 -120 -42 -323q-36 -90 -104 -265q-51 -130 -74 -184q-32 -77 -58 -115q-28 -41 -57 -56q-52 -24 -87 -20q-17 2 -25 10q9 29 24 61q29 64 58 76q24 11 63 111q9 23 39 104q28 74 47 122q81 200 110 304q27 97 15 137q-8 31 35 117q9 -5 21 -17
z" />
    <glyph glyph-name="asterisk" unicode="*" horiz-adv-x="391" 
d="M314 688q-67 -28 -87 -37l100 -49q-10 -14 -15 -19q-8 -6 -18 -1q-56 25 -75 34q10 -24 39 -88q-14 -18 -30 -28q-2 0 -43 101l-39 -101q-14 8 -19 13q-7 8 -3 18q23 66 31 88q-22 -10 -80 -36q-19 15 -28 30q-1 2 91 40q-27 12 -83 36q-2 23 4 41q1 2 91 -42l-34 87
q15 4 22 4q11 -1 15 -10q22 -52 30 -69q6 21 26 78q23 4 41 0q2 0 -33 -93l104 42q5 -17 4 -23q-1 -11 -11 -16z" />
    <glyph glyph-name="plus" unicode="+" horiz-adv-x="495" 
d="M213 316h-171v68h171v180l1 1h68v-181h170h1v-68h-171v-181h-69v181z" />
    <glyph glyph-name="comma" unicode="," horiz-adv-x="246" 
d="M180 121q23 -22 23 -54q0 -24 -21 -73q-26 -65 -63 -87q-31 -18 -67 -12q-21 4 -31 13q1 7 8 20q6 13 8 13q40 -10 58 8q19 18 22 43q-32 6 -50 26q-19 20 -19 49q0 32 23 54q22 23 54 23t55 -23z" />
    <glyph glyph-name="hyphen" unicode="-" horiz-adv-x="418" 
d="M145 200q-20 0 -20 16v50q0 17 20 17h174q20 0 20 -17v-50q0 -16 -20 -16h-174z" />
    <glyph glyph-name="period" unicode="." horiz-adv-x="246" 
d="M165 20q-20 -20 -48 -20t-48 20t-20 48t20 48t48 20t48 -20t20 -48t-20 -48z" />
    <glyph glyph-name="slash" unicode="/" horiz-adv-x="243" 
d="M272 415q-157 -416 -158 -415q-10 5 -39 19q-27 12 -41 20q-44 25 -31 52q58 119 255 740q112 12 164 0q8 -1 -150 -416z" />
    <glyph glyph-name="zero" unicode="0" horiz-adv-x="552" 
d="M271 136q29 32 49 78q17 40 97 276q20 61 6 88q-11 20 -49 27q-43 7 -70 -1q-44 -15 -69 -71q-75 -171 -101 -251q-27 -82 -23 -127q5 -67 75 -66q45 0 85 47zM309 702q57 4 121 -7q62 -11 90 -37q26 -25 26 -68q0 -41 -83 -259q-83 -217 -115 -263q-31 -44 -71 -57
q-35 -12 -121 -11q-78 1 -124 60q-49 60 -23 135q105 309 103 305q55 147 89 172q37 26 108 30z" />
    <glyph glyph-name="one" unicode="1" horiz-adv-x="308" 
d="M217 698q94 9 138 0q6 -2 -126 -350t-133 -348q-8 4 -33 16q-22 10 -34 17q-37 21 -26 44q42 87 171 485h-101l20 47q36 9 72 27q35 17 52 62z" />
    <glyph glyph-name="two" unicode="2" horiz-adv-x="522" 
d="M138 553q-1 37 23 74q49 74 177 74q75 0 125 -35q45 -32 63 -86q17 -51 7 -108q-11 -56 -44 -99q-89 -113 -228 -208q-70 -48 -122 -72l306 -3l-49 -90h-354q-20 20 -38 43q-36 47 -27 66q7 14 130 94q142 92 203 148q41 37 65 85q24 45 27 88q3 42 -16 68q-20 28 -61 28
q-30 0 -56 -34q-14 -17 -20 -33h-111z" />
    <glyph glyph-name="three" unicode="3" horiz-adv-x="552" 
d="M174 688q126 34 278 0q62 -14 95 -63q28 -42 26 -93q-3 -65 -63 -118q-30 -27 -59 -41q16 -17 27 -51q20 -68 -13 -154q-36 -93 -110 -135q-63 -37 -144 -33q-70 4 -131 36q-59 30 -73 67q-15 37 2 80q9 21 20 35h134q-23 -34 -27 -67q-8 -66 92 -63q43 2 80 33
q33 27 51 70q18 42 16 81q-3 42 -29 64q-25 22 -54 20q-15 -1 -24 -6l32 81q25 -4 55 -3q62 3 89 29q25 25 34 54q7 27 -1 52q-9 25 -30 43q-23 18 -54 24q-86 17 -122 -29q-17 -23 -17 -50h-133z" />
    <glyph glyph-name="four" unicode="4" horiz-adv-x="527" 
d="M415 696q93 9 137 0q6 -1 -93 -264h26l-27 -77h-28q-135 -356 -136 -355l-32 16q-23 10 -34 16q-38 22 -26 45q29 61 103 279l-297 1h-8q29 63 61 136q64 146 82 199q60 13 105 4q4 -1 -94 -264h176q36 109 85 264z" />
    <glyph glyph-name="five" unicode="5" horiz-adv-x="532" 
d="M262 453q44 3 79 -5q71 -16 116 -81q50 -72 29 -159q-20 -88 -88 -146q-75 -64 -183 -62q-55 1 -85 10q-28 8 -62 31q-55 37 -66 112q-5 38 1 68l125 -8q-12 -27 -9 -56q4 -58 75 -64q61 -4 92 12q42 21 68 89q26 66 14 116q-12 45 -48 62q-65 30 -121 11q-17 -7 -32 -17
q-10 -8 -11 -10h-126q44 131 111 340q46 5 89 4l75 1h241l-41 -88l-103 2q-30 29 -75 29h-65q-22 -63 -73 -200q8 1 36 5q23 2 37 4z" />
    <glyph glyph-name="six" unicode="6" horiz-adv-x="527" 
d="M353 270q-7 39 -36 59q-71 48 -136 11q-24 -13 -43 -37q-16 -20 -22 -39q-18 -60 9 -118q33 -70 116 -58q35 6 65 37q27 28 40 68q13 41 7 77zM414 568q1 18 -13 31q-26 26 -95 2q-38 -13 -87 -67q-54 -60 -99 -148q23 28 66 43q40 13 86 11q47 -2 86 -18q42 -17 62 -46
q29 -40 38 -75q12 -50 -5 -113q-27 -101 -99 -150q-65 -44 -146 -37q-78 7 -136 56q-61 52 -69 129q-22 201 108 379q76 104 177 125q105 22 177 -14q72 -35 72 -108h-123z" />
    <glyph glyph-name="seven" unicode="7" horiz-adv-x="493" 
d="M113 701q350 -2 373 -8q6 -1 -125 -347l-132 -346q-8 4 -33 15q-22 10 -34 17q-37 22 -26 44q45 94 190 545q-109 9 -136 -48h-131l54 128v0z" />
    <glyph glyph-name="eight" unicode="8" horiz-adv-x="537" 
d="M213 444q27 -37 102 -27q32 5 59 29q24 22 36 53q12 32 6 60q-6 30 -32 45q-63 38 -121 -9q-41 -33 -56 -77q-16 -45 6 -74zM129 109q31 -42 118 -30q37 5 67 32q28 26 41 62q15 36 8 68q-8 35 -37 53q-73 43 -139 -10q-47 -38 -65 -90q-18 -51 7 -85zM510 583
q11 -39 -4 -88q-28 -90 -109 -127q22 -14 36 -31q29 -36 38 -67q13 -45 -5 -102q-28 -90 -103 -134q-66 -39 -151 -33q-80 6 -140 50q-63 47 -71 116q-7 57 45 125q37 46 70 68q26 16 56 28q-62 41 -70 106q-7 49 39 108q31 41 61 60q72 46 156 37q78 -9 119 -57
q25 -32 33 -59z" />
    <glyph glyph-name="nine" unicode="9" horiz-adv-x="527" 
d="M215 515q-9 -37 15 -68q13 -16 52 -19q19 -2 70 1q5 16 18 51q15 38 20 53q20 60 -1 64q-88 20 -135 -20q-31 -28 -39 -62zM386 700q59 0 102 -20q28 -13 36 -41q2 -8 4 -41q2 -41 -184 -507q-21 -52 -29 -61q-22 -25 -48 -27q-92 -8 -165 6q-103 21 -102 82q1 57 40 131
l116 -4q-18 -29 -29 -59q-22 -60 10 -68q40 -9 61 -6q21 2 33 19q8 9 49 124q29 78 33 87q1 2 7 22q-87 0 -140 33q-46 29 -59 80q-13 46 5 97q19 50 58 85q76 68 202 68z" />
    <glyph glyph-name="colon" unicode=":" horiz-adv-x="316" 
d="M296 349q-16 -16 -38 -16q-23 0 -39 16q-15 16 -15 38q0 23 15 38q16 16 39 16q22 0 38 -16q16 -15 16 -38q0 -22 -16 -38zM190 33q-16 -15 -39 -15q-22 0 -38 15q-15 16 -15 38q0 23 15 38q16 16 38 16q23 0 39 -16q16 -15 16 -38q0 -22 -16 -38z" />
    <glyph glyph-name="semicolon" unicode=";" horiz-adv-x="272" 
d="M273 346q-16 -16 -38 -16t-38 16t-16 38t16 38t38 16t38 -16t16 -38t-16 -38zM180 174q-16 16 -38 16q-23 0 -38 -16q-16 -16 -16 -38q0 -20 13 -34t35 -18q-2 -18 -15 -30q-13 -13 -41 -6q-1 1 -6 -9q-4 -9 -6 -14q8 -6 23 -9q25 -4 46 8q26 16 45 61q13 35 13 51
q0 22 -15 38z" />
    <glyph glyph-name="less" unicode="&#x3c;" horiz-adv-x="635" 
d="M628 468q-228 -3 -372 -3q112 -96 286 -249q-26 -75 -44 -121q-136 115 -449 360q3 13 8 30q5 20 16 48q10 27 19 46q7 17 13 28q384 -17 562 -19q-21 -66 -39 -120z" />
    <glyph glyph-name="equal" unicode="=" horiz-adv-x="495" 
d="M78 183q10 31 19 59q58 1 287 1q0 -1 -4 -14q-4 -14 -5 -19q-5 -14 -10 -23l-7 -14q-191 9 -280 10zM437 412q-11 -32 -20 -60h-287l4 13q4 14 6 19q5 14 9 23l7 14q191 -9 281 -9z" />
    <glyph glyph-name="greater" unicode="&#x3e;" horiz-adv-x="685" 
d="M91 223q233 2 381 2q-115 98 -294 255q27 78 46 124q139 -118 461 -369q-4 -13 -9 -31q-5 -20 -16 -48q-10 -29 -19 -48q-8 -17 -14 -29q-394 18 -577 20q22 68 41 124z" />
    <glyph glyph-name="question" unicode="?" horiz-adv-x="512" 
d="M282 19q-19 -19 -46 -19t-45 19q-19 19 -19 45q0 27 19 45q18 19 45 19t46 -19q18 -18 18 -45q0 -26 -18 -45zM316 701q92 -10 130 -64q37 -54 39 -103q2 -52 -39 -84q-66 -51 -89 -98q-75 -197 -75 -196q-39 21 -53 52q-22 53 5 153q6 27 18 57q26 60 60 76q40 19 53 49
q12 29 -7 58q-25 40 -72 40q-47 -1 -74 -44q-24 -36 -10 -74q6 -19 17 -31l-50 -124q-17 15 -35 41q-36 50 -36 97q0 50 13 84q16 44 58 77q56 44 147 34z" />
    <glyph glyph-name="at" unicode="@" horiz-adv-x="864" 
d="M448 38q9 7 57 65q46 98 109 289q-4 47 -16 72q-18 11 -28 2q-40 -39 -69 -85q-48 -81 -90 -215q-13 -38 -14 -75q-2 -45 14 -64q11 -13 37 11zM681 753q171 -22 215 -124q72 -164 -78 -386q-83 -122 -200 -223q-4 -5 -6 -5q-37 -15 -40 -13q-59 32 -70 45
q-25 -28 -38 -37q-23 -16 -46 -11q-43 8 -99 71q-15 17 -4 94q11 74 35 146q18 52 55 105q36 53 73 78q22 15 113 3q31 -4 42 -45q11 31 23 71q48 -46 82 -70q9 -6 9 -29q-38 -99 -72 -174q-47 -104 -66 -149q17 0 24 6q26 22 73 93q52 79 88 159q44 98 49 167q7 82 -44 113
q-115 70 -251 49q-137 -23 -221 -129q-97 -121 -142 -312q-22 -95 -16 -167q6 -82 48 -122q74 -70 239 -79q82 -3 150 7q1 -8 -3 -18q-9 -22 -35 -40q-16 -12 -66 -15q-51 -5 -110 1q-153 14 -219 75q-68 62 -88 144q-30 127 34 328q63 199 173 300q69 63 154 83
q109 26 235 10z" />
    <glyph glyph-name="A" unicode="A" horiz-adv-x="858" 
d="M641 475q91 6 155 9q29 88 66 202q-73 -47 -115 -85q-54 -49 -106 -126zM991 719q3 0 -78 -233q20 -1 21 -4q5 -18 -4 -55q-10 -39 -25 -43q-3 -1 -27 -2q-95 -283 -102 -374l-54 -12q-47 25 -57 33q-26 22 -15 46q32 66 112 305h-182q-31 -53 -69 -123
q-115 -211 -203 -324q-166 -215 -310 -220q-130 -3 -261 75q-65 39 -104 79q77 -21 134 -26q97 -8 189 18q256 75 458 423q30 51 63 98q-344 1 -374 4q-72 7 -95 45q-10 16 -6 31q4 17 21 26q67 38 245 55q-122 -19 -174 -40q-32 -13 -41 -26q-8 -11 3 -21q21 -20 70 -17
l145 11q157 12 273 21q86 100 185 170q30 21 67 43t41 25q9 5 35 9q0 2 1 3q72 10 118 0z" />
    <glyph glyph-name="B" unicode="B" horiz-adv-x="1401" 
d="M1064 333q207 81 307 -19q32 -32 19 -78q-11 -42 -57 -91q-83 -92 -215 -161q-156 -80 -375 -86q-171 -5 -363 36q-102 21 -169 85q-31 30 -41 61q-10 32 8 59q43 63 186 95q71 16 134 20q-56 -10 -114 -31q-116 -42 -127 -94q-11 -57 71 -92q71 -32 200 -41
q118 -9 245 2q126 10 203 35q148 48 233 149q36 44 42 79q6 37 -24 53q-63 33 -200 -19q-122 -47 -223 -125q-18 -14 -84 -72q-61 -53 -63 -54q-33 -12 -35 -11q-44 24 -53 31q-25 20 -14 43q44 91 186 534q-234 -9 -528 -139q-107 -46 -165 -143q-29 -47 -37 -86
q-33 142 45 221q48 49 213 119q190 80 491 89v1v0q68 9 110 0q1 0 1 -1q119 -4 196 -23q83 -21 132 -53t59 -71q11 -40 -20 -84q-33 -46 -108 -91q-28 -16 -137 -7q-55 4 -104 13q68 15 135 41q136 53 136 105q0 51 -93 79q-80 25 -216 30q-91 -253 -220 -564q40 7 88 43
q10 8 41 32q25 21 41 32q153 106 263 149z" />
    <glyph glyph-name="C" unicode="C" horiz-adv-x="660" 
d="M716 557q0 -44 -29 -83q-45 -58 -88 -92q-45 -38 -121 -77q-3 -3 -10 2t-5 7q119 59 170 149q18 33 11 82q-4 22 -13 36t-24 14q-162 0 -335 -142q-175 -144 -191 -301q-12 -114 126 -114q86 0 215 45q108 37 167 73q25 15 33 15q3 0 3 -3q0 -6 -16 -21q-58 -54 -122 -85
q-127 -62 -227 -62q-99 0 -168 61q-9 9 -33 37q-42 38 -48 48q-11 21 -11 61q0 43 12 93q29 123 111 205q92 94 172 134q110 56 282 69q42 4 82 -31q36 -31 37 -58q20 -27 20 -62z" />
    <glyph glyph-name="D" unicode="D" horiz-adv-x="1223" 
d="M570 101q52 26 71 70q23 57 -100 76q-47 -120 -71 -176q62 11 100 30zM713 705q216 17 333 -17q146 -42 187 -122q41 -83 -2 -255q-24 -94 -93 -173q-71 -81 -182 -138q-162 -84 -376 -99q-183 -13 -363 25q-105 22 -172 86q-32 31 -41 62q-10 32 7 59q44 65 188 97
q73 17 136 20q-56 -10 -115 -31q-117 -42 -128 -95q-12 -58 71 -94q72 -31 203 -41q119 -10 248 2q128 10 206 35q180 59 293 169q134 131 98 281q-20 81 -134 122q-100 36 -257 36q-66 0 -133 -9q-44 -119 -134 -348q53 -1 74 -17q34 -26 35 -61q0 -35 -35 -75
q-24 -29 -78 -60q-34 -19 -52 -26q-34 -13 -37 -12q-44 25 -53 32q-25 21 -14 43q20 42 60 154q-76 4 -78 2q37 9 83 14q44 125 110 330q-154 -39 -352 -140q-108 -55 -159 -136q-25 -41 -29 -71q-18 88 -6 146q11 52 49 88q30 29 91 58q17 9 58 27t64 30q126 61 313 89
q5 13 5 14q67 9 111 0v-1z" />
    <glyph glyph-name="E" unicode="E" horiz-adv-x="730" 
d="M637 264q-10 15 -26 25q25 3 50 -4q50 -14 50 -66q0 -32 -49 -77q-52 -47 -130 -83q-199 -93 -383 -39q-56 16 -93 54q-34 35 -48 82q-13 45 -5 90q7 45 33 77q84 104 212 121q63 9 110 -3q-47 12 -85 41q-75 59 -24 148q41 73 135 80q74 6 131 -23q22 -11 43 -32
q16 33 45 50v-11q-22 -29 -20 -68q6 -7 9 -12q-3 2 -8 4q3 -19 10 -32l-39 -31q-11 41 -5 76q-25 8 -50 13q-57 11 -110 0q-48 -10 -80 -36q-31 -25 -35 -54q-4 -32 26 -58t91 -29q30 -1 54 3l-48 -135q-41 17 -95 20q-109 6 -178 -63q-108 -108 -68 -155q39 -45 231 -44
q84 1 185 28q115 32 154 76q30 35 10 67z" />
    <glyph glyph-name="F" unicode="F" horiz-adv-x="958" 
d="M335 594q-156 -48 -140 -116q12 -48 87 -77q37 -14 72 -18q-130 5 -232 35q-90 28 -114 69q-29 53 47 124q85 81 274 100q55 6 408 12q239 4 745 0q-134 -8 -300 -20q-330 -25 -484 -44q-246 -30 -363 -65zM669 -102q65 33 88 88q29 71 -125 95q-59 -150 -88 -220
q77 14 125 37zM964 403q-72 22 -194 31q-52 -137 -123 -315q67 -2 93 -22q43 -33 43 -76q1 -44 -43 -95q-31 -35 -98 -73q-43 -25 -65 -34q-42 -16 -45 -14q-56 30 -67 39q-31 26 -18 54q25 52 75 193q-95 4 -98 2q47 11 105 18q46 131 110 327q-69 -1 -138 -8l144 25
q28 87 62 193q86 18 140 6q6 -1 -60 -174l266 46z" />
    <glyph glyph-name="G" unicode="G" horiz-adv-x="634" 
d="M470 308q-7 5 -6 7q119 59 171 150q18 33 11 81q-4 23 -13 37t-24 14q-163 0 -336 -142q-176 -145 -191 -302q-13 -115 126 -115q86 0 216 45q16 5 36 13l69 126q-80 12 -159 -1q-83 -13 -146 -67q-19 -16 -37 -37l-16 -19q-4 -3 -2 6q2 11 10 26q22 42 58 68
q27 18 88 39q57 20 95 25q122 18 186 6q33 -6 41 -16l-49 -91q19 11 26 11q3 0 3 -3q0 -6 -16 -21q-18 -17 -38 -33l-33 -61l-132 -54l19 35q-91 -35 -166 -35q-100 0 -169 61q-8 10 -32 38q-3 2 -11 8t-13 10q-16 14 -25 30q-11 20 -11 61q0 43 12 93q30 123 111 206
q92 93 173 134q110 56 282 69q43 4 83 -31q36 -31 38 -58q20 -27 20 -63q0 -44 -30 -82q-45 -59 -88 -93q-45 -38 -122 -78q-2 -2 -9 3z" />
    <glyph glyph-name="H" unicode="H" horiz-adv-x="978" 
d="M949 479q60 1 116 1q17 0 -44 -51q-31 -26 -64 -51q-17 2 -44 6q-88 -225 -135 -337q31 5 126 53q33 16 42 18q12 2 -5 -17q-25 -29 -81 -61q-36 -20 -54 -27q-35 -13 -37 -12q-46 25 -56 33q-26 21 -14 44q32 68 116 319q-108 14 -205 23q-159 -421 -161 -420
q-7 4 -32 16q-23 10 -35 17q-37 22 -26 44q35 72 127 352q-149 8 -236 0q80 15 246 29q27 82 57 177q-336 5 -439 -24q-66 -19 -22 -59q22 -20 57 -36q-61 12 -104 34q-38 18 -42 37q-4 24 44 48q89 42 337 61q124 9 230 10l-1 -1q69 3 100 -3q5 -1 -82 -234q101 6 213 9
q31 94 73 226q70 9 115 0q6 -2 -80 -224z" />
    <glyph glyph-name="I" unicode="I" horiz-adv-x="901" 
d="M715 195q-14 7 -23 8q42 -2 84 -12q85 -20 85 -60q0 -24 -24 -49q-25 -27 -65 -43q-100 -41 -210 4q-72 31 -139 52l-36 -95q-8 4 -33 16q-24 11 -36 18q-39 23 -27 46q7 16 19 45q-151 30 -219 -15q-34 -22 -38 -50q-30 14 -45 37q-29 45 45 84q71 37 273 -15
q52 140 153 452q-293 -5 -356 -23q-69 -19 -23 -61q23 -20 59 -37q-63 13 -108 35q-39 20 -44 39q-5 25 46 49q87 42 446 61q9 27 14 45q97 9 144 0q2 -1 -11 -38q146 5 260 6l-61 -74q-98 1 -223 0q-56 -154 -184 -487q119 -36 137 -38q69 -7 137 5q38 6 53 18q18 13 4 31
q-26 33 -54 46z" />
    <glyph glyph-name="J" unicode="J" horiz-adv-x="1168" 
d="M733 -3q9 95 15 108q20 41 60 153q-267 -25 -398 -123q-91 -68 -153 -166q-59 -94 -74 -183q-15 -92 24 -143q42 -57 137 -48q112 10 221 84q115 79 146 177q13 40 22 141zM1084 741q2 -1 -11 -42q157 6 285 7l-60 -73q-111 1 -248 0q-43 -124 -132 -362q64 -2 106 -6
q-43 2 -107 0q-5 -12 -21 -67q-20 -63 -35 -108q-53 -157 -118 -272q-202 -354 -518 -313q-170 22 -212 124q-37 90 29 220q61 121 182 228q124 109 249 148q133 42 339 46q47 134 120 360q-284 -5 -346 -23q-67 -18 -22 -59q22 -21 58 -37q-62 13 -106 34q-39 19 -43 39
q-5 24 45 48q85 40 434 60q6 21 15 48q72 9 117 0z" />
    <glyph glyph-name="K" unicode="K" horiz-adv-x="961" 
d="M427 432q-13 -15 -20 -22q-44 -51 -21 -98q19 54 41 120zM1097 702q1 -17 -16 -55q-36 -74 -132 -173q-130 -135 -428 -215q224 -79 329 -194q30 -33 55 -65h-170q-77 103 -202 185q-27 18 -56 35l-80 -208q-8 4 -33 15q-23 11 -34 18q-38 22 -27 45q18 37 52 132
q-7 -2 -11 -2q4 1 12 4q8 23 19 53h-1l4 14q-39 40 -37 91q4 68 123 163q26 79 56 175q95 9 140 0q2 -1 -10 -36q62 52 48 79q-39 72 -141 40q-85 -26 -182 -109q-223 -191 -269 -373q-18 -69 -6 -126q10 -48 36 -71q13 -10 35 -12q22 -1 44 8q54 22 59 75q8 74 -52 152
q-31 39 -62 63q99 -34 158 -119q19 -27 17 -60q-2 -31 -21 -61q-44 -65 -130 -72q-87 -8 -138 49q-49 56 -46 151q4 100 68 209q71 122 203 226q146 116 283 152q152 41 211 -46q17 -25 -15 -67q-21 -28 -110 -117q-37 -105 -136 -363q59 30 115 64q165 102 247 234
q42 66 50 112h181z" />
    <glyph glyph-name="L" unicode="L" horiz-adv-x="870" 
d="M689 188q-14 7 -22 7q41 -2 82 -11q81 -19 81 -58q0 -23 -23 -47q-24 -26 -63 -41q-96 -39 -202 4q-70 29 -134 49l-35 -91q-8 4 -33 16q-22 10 -34 17q-37 21 -26 44q8 16 19 43q-146 29 -212 -14q-32 -21 -36 -48q-29 14 -43 35q-29 44 43 81q68 36 263 -14
q58 153 181 539q93 10 138 0q8 -2 -211 -571q115 -35 132 -36q67 -8 133 4q35 7 50 17q17 13 4 31q-25 31 -52 44z" />
    <glyph glyph-name="M" unicode="M" horiz-adv-x="1120" 
d="M417 417q-13 -15 -19 -22q-44 -49 -20 -96q18 53 39 118zM1174 610q47 -23 56 -41q6 -12 -101 -266q-50 -121 -68 -170q-29 -75 -19 -74q31 5 132 104q-109 -162 -153 -162q-53 0 -88 57q-10 15 75 211q96 217 104 254q5 26 -16 26q-20 -1 -58 -27q-90 -61 -184 -186
q-67 -158 -92 -221q-41 -105 -32 -113q-26 -5 -51 2q-49 15 -41 74q2 14 105 254q106 244 117 298q6 28 -16 31q-21 3 -63 -18q-94 -48 -214 -167q-40 -107 -96 -255q13 -6 23 -10q-10 3 -24 8q-81 -213 -82 -213q-8 4 -32 15q-23 10 -34 17q-37 22 -26 44q17 36 50 127
l4 10q10 28 21 59q-39 40 -37 90q3 66 120 160q25 76 55 170q92 10 136 0q2 0 -10 -35q61 51 48 77q-38 71 -139 40q-83 -26 -178 -108q-217 -186 -262 -363q-18 -68 -6 -123q9 -48 35 -70q13 -11 34 -12t43 8q53 21 58 73q7 72 -51 148q-30 39 -60 62q96 -33 154 -116
q19 -27 17 -59q-2 -31 -21 -59q-43 -63 -127 -71q-85 -7 -135 48q-48 54 -45 148q4 98 66 204q70 119 198 221q144 114 278 149q148 39 206 -45q16 -24 -15 -66q-20 -27 -108 -114q-15 -44 -42 -117q84 83 153 141q74 62 87 60q23 -5 75 -45t63 -62q6 -11 -57 -161
q176 190 202 185q26 -4 68 -26z" />
    <glyph glyph-name="N" unicode="N" horiz-adv-x="927" 
d="M418 412q-13 -15 -19 -22q-44 -50 -21 -97q19 54 40 119zM1079 662q-23 -135 -122 -289q-81 -125 -186 -300q-14 -49 -7 -54q2 -2 -3 -6q-4 -3 -12 -6q-22 -6 -45 -4q-30 2 -46 19q-20 21 -16 61q1 16 105 255q107 245 117 298q7 29 -15 32q-21 3 -63 -19
q-93 -46 -213 -165q-41 -110 -101 -268q13 -7 23 -10q-10 2 -24 7l-82 -213q-8 4 -33 15q-22 10 -33 17q-37 22 -26 44q16 34 46 118q6 24 19 53q5 12 9 25q-39 40 -37 91q4 66 121 160q24 77 55 170q92 10 136 0q2 0 -9 -34q61 50 47 76q-38 72 -139 40q-83 -25 -178 -107
q-218 -187 -263 -365q-18 -68 -6 -123q9 -48 36 -70q12 -10 33 -11q22 -1 43 7q54 21 59 74q7 72 -52 148q-30 38 -60 62q97 -33 155 -117q18 -26 17 -59q-2 -30 -21 -59q-43 -63 -128 -71q-85 -7 -135 49q-48 54 -45 147q4 99 66 205q70 119 199 222q144 113 277 149
q150 40 207 -45q17 -25 -14 -66q-21 -28 -109 -115q-13 -39 -37 -103q84 82 152 140q72 61 86 59q24 -5 76 -45t63 -62q7 -14 -90 -261q29 47 50 84q79 141 99 228q15 64 -1 125q-16 65 -120 89q-51 11 -100 10q38 6 86 3q98 -6 153 -56q57 -50 36 -179z" />
    <glyph glyph-name="O" unicode="O" horiz-adv-x="489" 
d="M537 472q0 -104 -65 -219q-61 -108 -152 -180q-95 -74 -177 -73q-72 1 -109 60q-34 51 -34 134q0 70 24 136q23 66 70 112q47 45 88 45q43 0 67 -22q4 -3 4 -6q0 -5 -19 -5q-65 0 -127 -110q-59 -105 -60 -204q-1 -111 82 -115q49 -1 85 29q35 28 82 105q69 112 100 219
q28 99 18 168q-9 55 -26 79q-22 30 -68 30q-98 -2 -165 -61q-25 -22 -69 -88q-16 -24 -35 -80l-17 -50q-2 0 0 21q2 25 8 53q19 85 65 141q50 61 121 92q53 22 100 22q79 0 137 -56q55 -53 68 -131q4 -22 4 -46z" />
    <glyph glyph-name="P" unicode="P" horiz-adv-x="1465" 
d="M1039 325q-207 -13 -372 -3q-60 -150 -107 -267q-7 -15 -10 -37q-3 -18 -2 -18q-55 30 -66 39q-31 25 -18 53q29 59 91 241q-60 7 -114 18q-124 26 -111 74q14 49 172 133q58 30 148 58q15 44 30 91q-27 -7 -54 -15q-155 -46 -360 -150q-134 -68 -206 -207
q-37 -69 -46 -125q-42 206 55 320q61 71 267 172q156 76 377 110q4 13 9 26q84 12 137 0q1 0 -1 -9q269 23 418 -19q190 -55 264 -143q81 -96 -8 -208q-45 -55 -186 -90q-125 -32 -307 -44zM531 422q19 -13 47 -24q27 82 61 183q-141 -59 -146 -93q-5 -37 38 -66zM739 508
q-28 -71 -53 -137q137 -25 319 -15q216 13 350 67q155 63 132 157q-24 97 -176 135q-112 29 -327 29q-80 0 -159 -10q-12 -34 -29 -78q73 18 159 34q-82 -24 -166 -53q-21 -56 -50 -129z" />
    <glyph glyph-name="Q" unicode="Q" horiz-adv-x="483" 
d="M47 141q-1 -112 83 -116q31 -1 55 10q-67 40 -60 81q4 21 30 53q9 11 24 28q18 22 25 29q28 33 36 56q10 30 -8 51q-26 33 -69 40q-22 3 -38 1l-18 -28q-59 -106 -60 -205zM257 31q113 -67 343 -114q-165 33 -220 46q-90 21 -158 52q-41 -15 -78 -15q-72 1 -110 60
q-34 52 -34 135q0 70 24 137q23 66 71 111q47 46 88 46q43 0 67 -22q4 -3 4 -7q0 -5 -19 -5q-56 0 -110 -81q8 5 28 6q37 4 89 -13q50 -15 67 -37q15 -20 5 -49q-10 -28 -107 -147q-30 -37 13 -76q32 28 77 102q69 112 100 219q29 100 19 169q-9 56 -27 80q-22 30 -68 29
q-98 -1 -165 -61q-25 -22 -69 -88q-17 -24 -36 -80l-17 -51q-1 0 0 21q2 26 8 54q20 85 65 141q50 62 122 92q53 23 100 23q79 0 138 -57q55 -53 68 -131q4 -22 4 -47q0 -104 -65 -219q-61 -108 -153 -181q-32 -25 -64 -42z" />
    <glyph glyph-name="R" unicode="R" horiz-adv-x="1465" 
d="M523 426q19 -13 46 -24q28 80 60 180q-139 -58 -143 -92q-5 -36 37 -64zM729 511q-28 -72 -54 -136q136 -24 315 -14q14 1 27 2q1 1 1 2q33 46 42 76q11 38 -14 63q-45 46 -168 18q-61 -13 -114 -36q37 26 93 47q113 42 211 19q60 -14 73 -58q10 -35 -11 -92
q-4 -12 -12 -28q128 17 218 53q152 61 129 154q-23 96 -173 133q-111 28 -322 28q-79 0 -157 -10q-12 -32 -28 -75q71 17 156 33q-82 -23 -164 -52q-21 -56 -48 -127zM991 329q-185 -11 -334 -1q-58 -149 -106 -264q-6 -15 -10 -41q-4 -23 -3 -23q-45 24 -64 43
q-30 30 -16 58q27 58 89 236q-59 8 -112 19q-123 26 -110 73q14 48 170 130q56 30 146 59q14 42 29 88q-27 -6 -53 -14q-153 -45 -355 -148q-132 -67 -203 -204q-36 -68 -45 -123q-42 202 54 315q60 70 263 169q154 75 372 109q4 12 8 25q83 12 136 0q1 0 -1 -9
q265 24 411 -18q188 -54 261 -141q80 -95 -8 -204q-44 -55 -183 -90q-97 -24 -226 -37q-8 -14 -17 -30q-29 -56 -33 -72q-7 -29 223 -134q116 -53 232 -100l-269 56q-83 18 -163 48q-161 58 -151 113q6 26 36 70l30 39q1 1 2 3z" />
    <glyph glyph-name="S" unicode="S" horiz-adv-x="875" 
d="M837 483q-35 -32 -72 -56q15 24 27 53q23 60 9 90q-25 52 -171 69q-131 16 -218 -5q-76 -18 -100 -65q-12 -22 -6 -44q5 -24 29 -44q38 -33 197 -96q212 -84 223 -90q70 -32 85 -86q15 -49 -19 -100q-34 -50 -101 -80q-73 -33 -158 -29h-40q-37 -1 -66 -1q-99 2 -178 24
q-90 26 -163 88q-64 55 -97 123q-31 64 -19 108q13 47 71 45q103 -2 226 -249q62 -123 103 -246q-52 133 -123 254q-142 243 -234 179q-53 -36 -16 -91q34 -48 128 -96q93 -46 200 -68q115 -24 199 -7q58 11 92 39q29 23 35 57q7 29 -6 58q-12 28 -35 45q-12 8 -93 51
q-86 47 -138 81q-177 115 -134 193q44 80 264 104q74 8 151 8q66 0 76 -4q21 -8 29 -27q21 -4 43 -17q46 -25 58 -64q11 -39 -58 -104z" />
    <glyph glyph-name="T" unicode="T" horiz-adv-x="734" 
d="M595 79q56 28 75 75q25 60 -106 80q-50 -127 -75 -187q66 12 106 32zM1196 690q-108 -23 -368 -56q-59 -7 -115 -16q-47 -128 -136 -352q57 -1 79 -18q36 -28 36 -64q1 -38 -36 -81q-26 -30 -83 -62q-36 -21 -55 -29q-36 -13 -39 -12q-47 26 -57 34q-26 21 -14 45
q21 44 63 164q-81 3 -83 2q39 8 89 15q45 128 112 335q-222 -46 -344 -117q-111 -66 -179 -182q-34 -58 -45 -103q-47 145 12 256q63 116 237 175q110 38 348 63q2 6 6 17q3 11 4 16q73 10 119 0q1 0 -5 -21q200 17 462 26l100 3q-38 -22 -108 -38z" />
    <glyph glyph-name="U" unicode="U" horiz-adv-x="1171" 
d="M1057 77q53 27 72 72q24 59 -103 78q-48 -123 -72 -181q64 12 103 31zM1011 457q-74 -118 -148 -218q39 8 79 13q29 85 69 205zM1039 258q54 -1 76 -18q35 -27 35 -62q1 -37 -35 -78q-25 -29 -80 -60q-35 -20 -54 -28q-34 -13 -37 -12q-46 25 -55 33q-26 21 -14 44
q20 43 61 158q-10 1 -74 2q-118 -160 -184 -199q-45 -27 -101 -35q-55 -8 -105 4q-52 12 -83 42q-34 34 -35 82q-2 70 146 319q69 115 84 148q30 60 3 52q-126 -36 -308 -151q-242 -153 -220 -271q17 -88 65 -91q23 -2 44 14q-11 -19 -29 -31q-37 -24 -77 15q-55 52 -62 125
q-6 85 62 157q79 85 364 200q127 50 218 71q103 23 129 0q-58 -105 -119 -220q-121 -231 -133 -287q-8 -34 4 -63q13 -30 40 -43q30 -13 67 -2q43 12 89 56q79 77 215 278q92 137 119 187q-3 6 -7 13q-6 16 13 50q20 36 18 44h55q43 2 69 -4q8 -2 -164 -439z" />
    <glyph glyph-name="V" unicode="V" horiz-adv-x="930" 
d="M499 53q22 -3 54 5q64 15 116 69q67 70 164 262q25 49 177 376q101 217 233 271q54 22 111 11q47 -8 83 -34q28 -22 19 -66q-5 -22 -16 -40q-1 18 -7 36q-14 36 -43 35q-53 -3 -117 -50q-66 -50 -112 -125q-67 -107 -183 -323q-27 -49 -82 -155q-43 -80 -57 -104
l-292 -221q-48 9 -96 30q-97 42 -95 100q1 45 50 142q30 60 99 179q67 113 84 149q29 60 2 52q-127 -36 -310 -152q-108 -68 -165 -131q-69 -77 -56 -141q16 -89 64 -92q24 -1 45 15q-11 -20 -29 -32q-37 -24 -78 15q-55 53 -62 126q-6 86 62 158q80 85 367 201
q128 51 219 71q103 24 129 1q-259 -548 -278 -638z" />
    <glyph glyph-name="W" unicode="W" horiz-adv-x="1751" 
d="M1290 933q-91 100 -169 159q198 -119 365 -293q146 -153 198 -294q65 -176 -22 -326q-46 -79 -123 -125q-70 -42 -154 -51q-77 -9 -148 11q-70 20 -110 61q-51 53 -75 114q-27 67 -29 162q-1 47 -6 62q-4 11 -23 30q-195 -334 -315 -405q-45 -26 -101 -35q-55 -7 -105 4
q-52 13 -83 43q-34 33 -36 81q-1 71 146 320q69 116 85 148q30 60 3 52q-126 -36 -308 -151q-243 -153 -221 -271q17 -88 65 -91q23 -2 44 14q-10 -20 -29 -32q-37 -24 -77 15q-55 53 -62 126q-6 85 62 157q79 85 365 200q127 51 218 71q103 23 129 0q-59 -104 -119 -220
q-122 -232 -134 -287q-7 -34 5 -63q13 -30 40 -43q30 -14 67 -3q43 13 88 56q98 94 261 350q-3 51 21 96q26 48 71 52q17 2 27 -4q10 -7 7 -17q-49 -136 -37 -278q11 -141 75 -214q84 -96 202 -64q98 26 162 114q52 71 56 151q5 79 -34 210q-62 207 -242 408z" />
    <glyph glyph-name="X" unicode="X" horiz-adv-x="789" 
d="M769 795q46 -30 37 -58q-9 -25 -104 -140q-120 -144 -261 -278q65 -101 155 -223q13 -11 30 -17q35 -13 54 3q34 29 20 52q-7 12 -49 39q-39 25 -49 46q-14 31 20 74q122 -111 120 -149q-2 -47 -50 -102q-28 -32 -60 -39q-8 -2 -48 -2q-12 0 -36 5q-28 5 -36 12t-166 214
q-140 -133 -311 -224q-9 0 -17 4q-18 9 -18 31v35q30 7 83 36q105 57 222 167q-102 138 -148 206q-76 113 -73 137q3 34 62 58q29 12 58 17q90 -167 196 -320q232 228 299 358q21 40 23 66q2 13 -2 18q26 -10 49 -26z" />
    <glyph glyph-name="Y" unicode="Y" horiz-adv-x="1069" 
d="M509 -626q45 73 117 231q101 221 123 280q-77 -16 -167 -88q-75 -59 -107 -107q-78 -119 -88 -257q-5 -58 6 -97q10 -39 31 -44q30 -8 85 82zM1003 680q13 -1 17 -9q121 -78 113 -100q-22 -61 -116 -325q-68 -191 -113 -309q41 -18 57 -41q17 -22 15 -59q-3 -66 -74 -182
q-35 -59 -70 -104q43 75 70 155q56 159 -17 178q-137 -370 -166 -428q-32 -64 -62 -100q-51 -59 -124 -82q-138 -44 -205 -4q-56 33 -59 120q-2 69 27 159q26 76 54 115q70 96 189 176q115 77 222 103q122 351 137 397q13 36 33 100q23 74 31 99q-35 -82 -72 -179
q-72 -190 -122 -265q-38 -57 -108 -80q-64 -21 -137 -11q-70 10 -118 44q-50 37 -51 86q-2 70 146 319q68 115 84 148q30 60 3 52q-126 -36 -308 -151q-242 -153 -220 -272q17 -87 65 -90q23 -2 44 14q-11 -19 -29 -31q-37 -24 -77 15q-55 52 -62 125q-6 85 62 157
q79 85 364 200q127 50 218 71q102 23 129 0q-59 -105 -119 -220q-121 -231 -133 -287q-8 -34 3 -64q11 -32 36 -46q26 -15 61 -4q40 13 82 59q65 70 152 277q95 222 129 269q5 7 19 5z" />
    <glyph glyph-name="Z" unicode="Z" horiz-adv-x="796" 
d="M398 104q-135 -26 -266 -110q-141 114 -137 128q17 56 109 219q69 49 157 74q177 49 236 153q-30 -4 -69 -9q-95 -16 -167 -12q-81 5 -110 35q-30 31 -37 127q185 -27 297 -25q208 5 308 25q-32 -59 -80 -95q17 -17 7 -31q-10 -16 -26 -41q-16 -28 -24 -39
q-27 -41 -61 -67q-86 -66 -328 -113q-88 -18 -113 -201q-1 -4 37 13q62 29 97 43q159 64 261 50q88 -13 152 -54q68 -44 88 -108q22 -72 -22 -156q-50 -96 -180 -197q-217 -170 -564 -214q-173 -21 -303 -9q-324 243 -336 246q37 -7 116 -18q162 -21 317 -27
q507 -18 734 136q138 94 160 171q10 34 -5 61q-15 25 -50 40q-75 30 -198 5z" />
    <glyph glyph-name="bracketleft" unicode="[" horiz-adv-x="857" 
d="M199 -51q3 -32 24 -44q14 -9 208 -3l-34 -108h-225h-3v0q-10 -1 -25 9q-29 21 -52 74q-12 32 -5 82q7 46 34 126q19 57 70 190q68 178 101 270q70 189 169 260q52 36 110 36q65 1 214 1l-42 -112q-157 3 -200 3q-11 0 -29 -14q-6 -5 -11 -10q-6 -5 -5 -4
q-62 -73 -180 -395q-16 -43 -45 -120q-27 -73 -38 -103q-37 -102 -37 -132q1 -3 1 -5v-1z" />
    <glyph glyph-name="backslash" unicode="\" horiz-adv-x="531" 
d="M332 -5q-75 195 -133 349q-25 65 -48 128t-41 112t-27.5 79t-7.5 30q18 4 42 4.5t46 -0.5q26 -1 52 -4q11 -41 28 -96t36 -116t40 -123t40.5 -116.5t36 -98t28.5 -66.5q9 -13 0.5 -24.5t-24.5 -21t-35.5 -18.5t-32.5 -18z" />
    <glyph glyph-name="bracketright" unicode="]" horiz-adv-x="830" 
d="M657 684q-4 31 -25 44q-14 8 -207 2l34 108h224h3v0q10 1 25 -9q29 -20 52 -74q12 -31 5 -81q-7 -46 -34 -126q-19 -56 -70 -189q-67 -177 -101 -269q-69 -188 -168 -258q-51 -36 -109 -37h-213l42 111q156 -3 199 -3q11 0 29 14q5 5 11 10q6 6 4 5q62 72 180 393
q16 43 45 119q27 72 38 102q37 102 36 132v5q-1 1 0 1z" />
    <glyph glyph-name="asciicircum" unicode="^" horiz-adv-x="525" 
d="M384 395q2 -7 -2 -12.5t-11.5 -10t-16 -9t-15.5 -8.5l-34 88q-14 38 -30.5 82t-29.5 82q-15 -38 -31.5 -82t-30.5 -82q-17 -44 -33 -88q-6 4 -15.5 8.5t-17.5 9t-12 10t0 12.5q8 16 21.5 53.5t28.5 81.5t28.5 87.5t22.5 73.5q1 0 4 1q2 1 5 1.5t8 2.5h22h23
q2 -2 3.5 -2.5t3.5 -1.5t4 -1l24.5 -73.5t29.5 -87.5t29 -81.5t22 -53.5z" />
    <glyph glyph-name="underscore" unicode="_" horiz-adv-x="500" 
d="M0 -32h500v-46h-500v46z" />
    <glyph glyph-name="grave" unicode="`" horiz-adv-x="500" 
d="M329 527h-64l-131 98q-15 10 -22.5 20t-7.5 21q0 15 10 24.5t26 9.5q9 0 19 -6t28 -23z" />
    <glyph glyph-name="a" unicode="a" horiz-adv-x="391" 
d="M136 40q9 8 58 64q45 99 108 289q-4 46 -16 71q-18 12 -28 2q-40 -39 -68 -85q-49 -79 -90 -214q-12 -37 -14 -74q-3 -45 14 -63q11 -14 36 10zM297 102q16 0 24 6q2 2 25 18q19 15 33 27q45 38 80 90q-4 -41 -18 -65q-21 -35 -78 -94q-65 -67 -63 -67q-37 -14 -40 -13
q-59 33 -70 46q-25 -29 -37 -37q-23 -17 -46 -12q-42 9 -99 72q-14 16 -4 93q11 73 36 145q18 52 54 104q36 53 73 78q22 15 112 3q31 -4 42 -45q12 35 23 70q47 -45 82 -69q9 -6 9 -28q-38 -99 -72 -174q-47 -104 -66 -148z" />
    <glyph glyph-name="b" unicode="b" horiz-adv-x="414" 
d="M218 196q27 9 67 17q85 203 77 226q-4 11 -8 17q-6 9 -11 5q-58 -49 -126 -121q-32 -79 -71 -174q29 15 72 30zM152 35q39 -4 80 65q14 23 37 75q-86 -29 -128 -58q-22 -16 -26 -26v0v0q0 -23 10 -38q10 -16 27 -18zM428 444q45 -67 -21 -212q43 6 113 9q2 -10 1 -20
q0 -20 -12 -23q-5 -1 -49 -2q-54 0 -70 -1q-49 -96 -97 -141q-26 -25 -79 -38q-47 -12 -65 -4q-37 16 -53 33q-3 -6 -10 -22q-6 -15 -9 -23q-25 7 -46 21q-43 28 -27 62q25 50 251 727q0 1 56 -38q55 -38 50 -51q-56 -156 -114 -304q49 51 65 65q31 30 39 25q61 -39 77 -63z
" />
    <glyph glyph-name="c" unicode="c" horiz-adv-x="291" 
d="M276 391q1 -8 7 -24q11 -30 25 -22q12 7 12 32q0 10 -16 47q-18 -14 -20 -17q-9 -8 -8 -16zM449 465q6 -1 -28 -36q-46 18 -83 11q-8 -1 -17 -5l4 -8q30 -50 15 -94q-1 -5 -18 -12q-16 -8 -20 -4q-11 12 -30 51q-12 25 -10 41q2 32 29 46l-5 10q-18 11 -28 1
q-40 -38 -68 -84q-49 -80 -90 -214q-12 -38 -14 -75q-3 -44 14 -63q12 -14 34 -1q19 12 54 54q5 5 13 4q7 -1 12 -5q6 -5 8 -12q1 -7 -5 -12q-34 -34 -49 -43q-31 -19 -60 -14q-43 9 -99 72q-14 16 -4 93q11 74 36 145q18 52 54 105q36 52 73 77q22 16 113 3q6 0 26 -36
q17 6 40 8q28 2 103 -3z" />
    <glyph glyph-name="d" unicode="d" horiz-adv-x="391" 
d="M301 386q0 43 -16 77q-18 11 -28 1q-40 -38 -68 -84q-48 -79 -90 -213q-12 -37 -14 -74q-2 -44 14 -63q13 -14 34 -1q19 12 54 54q43 89 114 302v1zM378 625q35 109 57 173q0 2 54 -36q55 -38 50 -51q-98 -272 -240 -614q16 1 23 7q2 1 25 18q19 14 33 26q45 39 80 90
q-4 -42 -18 -65q-21 -34 -77 -93q-65 -68 -63 -67q-37 -14 -40 -13q-54 29 -65 41q-51 -47 -91 -39q-42 9 -98 71q-14 16 -4 93q11 73 36 144q17 52 53 104q37 52 73 77q22 16 112 4q11 -2 21 -10q15 -13 22 -40q8 26 57 180z" />
    <glyph glyph-name="e" unicode="e" horiz-adv-x="307" 
d="M168 173q-2 -7 6 -6q4 0 17 1q14 2 17 2q12 28 20 55q-1 0 -42 -32q-15 -12 -18 -20zM277 458q-12 15 -19 8q-54 -52 -92 -128q-2 4 14 -38q7 -17 13 -17q14 -1 43 34q9 11 18 24q9 11 8 11q27 39 27 82q0 10 -12 24zM171 273q-6 6 -23 28q-25 -58 -48 -134
q-12 -37 -14 -74q-3 -45 14 -63q4 -5 6 -5q15 3 40 37q28 36 51 84q-34 0 -40 1q-15 2 -9 29q2 9 39 38q26 19 38 23q5 2 6 0q10 -9 19 -21q17 -24 11 -40v0h-1q42 4 74 6q-16 -23 -27 -40q-26 6 -58 4q-18 -41 -53 -89q-40 -57 -87 -57q-2 0 -16 7q-45 21 -85 66
q-14 16 -4 93q11 74 36 145q18 52 54 105q36 52 73 77q13 9 42 9q8 0 25 -1t26 -1q12 0 49 -26q39 -30 41 -54q3 -38 -35 -91q-24 -34 -61 -49q-4 -3 -26 -7q-28 -6 -40 -9q-7 -2 -17 9z" />
    <glyph glyph-name="f" unicode="f" horiz-adv-x="275" 
d="M119 25q23 15 40 58q34 87 57 262q-42 -133 -106 -296q-6 -18 -3 -24q2 -5 12 0zM357 799q41 -27 65 -59q16 -22 17 -34q1 -11 -8 -42q-16 -53 -23 -64q-8 -14 -22 -7q-13 7 -16 13q-6 13 -7 15q13 30 20 59q13 57 -16 49q-17 -5 -24 -10q-10 -6 -14 -19
q-12 -32 -59 -197q36 -7 36 -16q0 -14 -9 -82q-20 9 -46 16q-15 -179 -62 -344q-16 -59 -61 -73q-27 -8 -52 0q-36 14 -49 23q-38 26 -22 59q15 31 121 343q-35 -3 -42 -5l28 87q20 1 42 1q89 262 84 250q6 16 27 33q19 15 47 16q25 0 45 -12zM84 422q-2 1 0 2v-2z" />
    <glyph glyph-name="g" unicode="g" horiz-adv-x="384" 
d="M184 94q5 5 12 4q16 52 43 144q30 102 42 141q5 27 5 40q0 17 -20 29q-16 9 -22 12q-12 4 -17 -3q-33 -41 -52 -78q-38 -73 -77 -206q-11 -38 -13 -73q-2 -43 13 -61q12 -14 33 -1q18 12 53 52zM24 -157q-5 -77 47 -126q11 27 29 84q21 64 39 115l-97 15q-13 -22 -18 -88
zM335 177q-50 -138 -82 -223q87 -6 171 9l-37 -65q-75 -9 -152 0q-39 -105 -113 -285l-74 27q-47 73 -63 120q-13 42 -12 95q3 64 29 104q50 21 56 21q1 0 28 -6q32 -7 66 -12q13 35 26 77q-38 -31 -73 -23q-41 8 -95 69q-14 16 -4 90q10 72 34 140q18 51 53 102t70 75
q13 9 50 8q12 0 30 -1q25 -3 23 -3q23 -2 43 -24q4 14 8 26q1 2 54 -36q53 -37 48 -49q-15 -42 -84 -236z" />
    <glyph glyph-name="h" unicode="h" horiz-adv-x="439" 
d="M453 418q-24 -90 -110 -339q8 0 57 44q58 51 115 115q-1 -45 -19 -65q-38 -42 -90 -97q-9 -10 -24 -27t-21 -24q-23 -25 -40 -25q-9 0 -54 24q-34 18 -37 33q-4 19 50 173q29 82 35 100q15 43 9 41q-33 -16 -127 -69q-30 -76 -121 -295q-24 8 -45 21q-43 28 -27 62
q24 50 248 720q1 1 56 -38q55 -38 50 -51q-62 -169 -127 -334q156 119 164 113q6 -5 24 -19q15 -10 21 -17q19 -19 13 -46z" />
    <glyph glyph-name="i" unicode="i" horiz-adv-x="221" 
d="M190 247q-62 -125 -77 -168q9 0 58 44q58 51 114 115q0 -44 -18 -65q-38 -42 -91 -97q-9 -9 -23 -26q-15 -18 -21 -25q-24 -25 -41 -25q-8 0 -54 24q-34 19 -37 33q-5 25 76 238q81 212 90 205q8 -7 29 -20q25 -15 34 -22q37 -26 30 -52q-11 -45 -69 -159zM184 547
q22 54 52 120q32 66 34 64q8 -7 31 -22q24 -16 34 -24q40 -31 33 -57q-12 -46 -46 -92q-10 -12 -67 -37z" />
    <glyph glyph-name="j" unicode="j" horiz-adv-x="211" 
d="M232 670q32 69 35 67q8 -8 31 -23q25 -16 35 -25q41 -31 34 -58q-12 -48 -47 -94q-10 -13 -69 -38l-73 49q22 55 54 122zM-192 -201q-6 -82 49 -134q14 39 96 259q-36 -15 -85 -24l-41 -8q-15 -24 -19 -93zM127 111q-21 -44 -21 -43q12 3 61 46q59 53 115 117
q0 -45 -19 -66q-39 -44 -93 -101q-43 -44 -98 -87q-54 -108 -161 -423l-78 29q-50 78 -67 128q-15 44 -13 101q3 67 31 109q52 23 60 23q57 0 128 48q2 5 26 72q24 70 37 105q117 337 124 331q9 -7 31 -21q25 -15 34 -21q38 -28 31 -54q-11 -43 -80 -193q-22 -46 -48 -100z
" />
    <glyph glyph-name="k" unicode="k" horiz-adv-x="437" 
d="M258 163q27 -44 84 -84q9 0 57 43q59 52 115 115q-1 -44 -19 -64q-37 -43 -90 -97q-9 -10 -23 -27q-15 -18 -22 -24q-23 -25 -40 -25q-8 0 -54 24q-33 18 -37 33q0 4 -10 30q-11 33 -17 52q-22 71 -13 83q44 54 98 110l17 17l12 12q10 10 7 9q-33 -16 -126 -69
q-30 -76 -121 -294q-24 8 -45 21q-43 28 -27 62q24 49 248 718q0 1 55 -37t50 -51q-61 -170 -126 -334q156 119 163 113q6 -5 24 -19q15 -10 21 -17q19 -19 13 -46q-6 -22 -99 -92q-96 -73 -110 -109q-8 -17 15 -53z" />
    <glyph glyph-name="l" unicode="l" horiz-adv-x="200" 
d="M362 721q-101 -277 -248 -631q70 50 159 152q0 -45 -19 -66q-38 -43 -90 -98q-9 -9 -24 -27q-16 -18 -23 -25q-24 -26 -39 -26q-1 0 -16 5q-17 7 -31 16q-43 27 -27 62q25 50 251 727q1 1 56 -38q56 -38 51 -51z" />
    <glyph glyph-name="m" unicode="m" horiz-adv-x="644" 
d="M653 417q-23 -91 -109 -338q8 0 57 43q58 51 114 115q-1 -44 -19 -65q-37 -42 -90 -96q-8 -10 -23 -27q-15 -18 -21 -24q-23 -25 -41 -25q-8 0 -53 24q-33 18 -36 32q-5 20 49 173q29 81 35 100q14 43 9 40q-30 -14 -110 -59q-23 -73 -63 -190q-38 -108 -41 -119
q-19 4 -40 14q-40 18 -46 43q-4 20 50 172q29 82 35 100q14 43 8 40q-30 -14 -113 -61q-24 -71 -69 -190q-40 -106 -44 -119q-28 12 -53 30q-50 35 -36 67q35 74 93 247q52 155 51 156q10 -9 30 -20q27 -15 32 -18q35 -22 29 -47q-3 -11 -7 -25q151 115 158 110q7 -6 25 -19
q14 -11 21 -17q19 -20 12 -46q-3 -12 -8 -27q149 113 157 107q6 -5 24 -19q14 -10 21 -17q19 -19 12 -45z" />
    <glyph glyph-name="n" unicode="n" horiz-adv-x="448" 
d="M455 418q-24 -91 -110 -339q9 0 57 44q59 51 115 115q-1 -45 -19 -65q-38 -42 -90 -97q-9 -10 -23 -27q-15 -17 -22 -24q-23 -25 -40 -25q-9 0 -54 24q-34 18 -37 33q-4 19 51 173q29 81 34 100q15 43 9 40q-33 -15 -122 -66q-24 -70 -69 -187q-39 -104 -43 -117
q-28 12 -53 30q-50 35 -36 67q35 75 93 249q52 154 52 155q10 -8 30 -19q27 -15 32 -18q35 -23 29 -47q-4 -15 -10 -33q160 122 168 116q6 -6 24 -19q15 -10 21 -17q20 -20 13 -46z" />
    <glyph glyph-name="o" unicode="o" horiz-adv-x="328" 
d="M212 271q10 -5 49 2q30 76 25 110q-2 12 -8 17l-4 4q-2 1 -2 2q-3 -2 -30 -40q-31 -44 -43 -70q-1 -4 4 -13q5 -10 9 -12zM94 36q22 -2 80 82q52 71 78 133q-26 -5 -38 -5q-16 0 -26 9q-6 7 -13 22q-6 15 -4 20q22 52 58 119q-42 -20 -112 -174q-24 -51 -35 -123
q-14 -80 12 -83zM349 381q0 -23 -22 -93q53 11 89 15l-20 -38q-38 3 -77 -2q-4 -10 -7 -21q-26 -77 -68 -143q-26 -42 -48 -63q-36 -31 -59 -35l-12 -1q-44 2 -97 33q-22 16 -23 22l-1 7q-25 181 100 351q78 105 162 88q5 -1 7 -5l-7 -18q41 12 62 -14q15 -19 21 -63v-20z
" />
    <glyph glyph-name="p" unicode="p" horiz-adv-x="416" 
d="M210 392q-25 -66 -125 -307q-1 -23 9 -40t27 -20q40 -7 83 64q33 57 90 187q60 137 54 152q-3 9 -22 26t-28 16q-28 -5 -88 -78zM401 437q50 -74 -35 -244q-52 -104 -100 -150q-27 -25 -80 -38q-48 -11 -66 -4q-39 17 -55 36q-78 -194 -101 -351q0 1 -34 26t-33 40
q30 201 215 756q0 -1 27 -18q31 -20 50 -35q39 27 72 43q8 3 32 2q24 -3 31 -7q67 -41 77 -56z" />
    <glyph glyph-name="q" unicode="q" horiz-adv-x="394" 
d="M86 96q-2 -45 14 -63q13 -14 34 -1q19 12 54 53q30 101 102 312q2 16 2 25q0 18 -20 30q-16 10 -23 12q-12 4 -17 -3q-34 -42 -54 -80q-39 -75 -78 -211q-12 -39 -14 -74zM278 38q-76 -188 -98 -342q0 1 -34 26q-33 25 -31 39q17 120 55 260q-32 -22 -63 -16
q-42 9 -98 71q-14 16 -4 92q11 73 35 144q18 52 54 105q36 52 73 76q13 10 51 9q12 -1 30 -2q25 -3 24 -2q24 -2 43 -25l10 26q0 2 54 -36q55 -38 50 -51q-32 -90 -79 -202q-72 -171 -72 -172z" />
    <glyph glyph-name="r" unicode="r" horiz-adv-x="350" 
d="M244 92q26 -1 38 8q80 64 122 125q-4 -39 -18 -61q-31 -52 -76 -100q-62 -64 -89 -64q-14 0 -28 12q-7 7 -29 32q-30 35 -26 48q19 56 50 151q38 112 51 152q-31 -13 -67 -33q-1 -1 -3 -1q-13 -31 -40 -92q-22 -52 -113 -134q-27 -23 -8 18q6 13 20 38l18 36
q25 50 46 141q22 100 33 126q2 6 18 7q15 1 33 -3t30 -11t9 -14q-7 -18 -10 -25q32 16 59 23q7 -5 16 -12q89 -56 83 -71q-42 -116 -119 -296z" />
    <glyph glyph-name="s" unicode="s" horiz-adv-x="336" 
d="M223 385l-10 -5q-28 -13 -57 -1q-10 5 -13 10q-2 6 8 9q25 9 119 81q7 10 13 15q13 12 39 5q23 -6 46 -24q22 -19 31 -38q9 -21 -4 -33q-20 -18 -44 -34q-18 -13 -21 -18q-9 -11 -11 -76q-1 -47 -13 -134q49 45 95 98q0 -44 -18 -65q-57 -64 -91 -97q-45 -46 -62 -51
q-77 -40 -146 -21q-46 14 -70 66q-25 53 -6 109q19 55 105 118q21 -17 31 -34q9 -15 8 -51t-13 -45q-10 -7 -25 -12q-12 -4 -27 -17q-7 -7 -10 -22q-4 -16 -1 -33q7 -42 49 -50q32 -5 56 33q16 25 26 64q11 41 8 118q-3 83 4 120q2 7 4 15z" />
    <glyph glyph-name="t" unicode="t" horiz-adv-x="228" 
d="M353 762q0 -47 -79 -262q31 -7 31 -15q1 -15 -9 -84q-23 9 -52 17q-7 -20 -15 -38q-1 -6 -3 -11l-2 -4q-46 -120 -109 -266q29 0 41 9q87 70 132 135q-4 -42 -19 -66q-34 -56 -83 -107q-66 -70 -96 -70q-14 0 -29 13q-8 7 -33 35q-31 37 -27 51q20 61 54 163
q39 120 53 162q-25 -2 -30 -5l28 91h29l87 299q26 -14 62 -10q25 3 47 -10t22 -27zM78 418q-2 0 0 1v-1z" />
    <glyph glyph-name="u" unicode="u" horiz-adv-x="446" 
d="M286 13q-8 7 -32 34q-31 36 -26 51q1 5 4 13q3 10 4 13q-8 -9 -24 -25q-21 -22 -29 -31q-66 -68 -95 -68q-14 0 -28 13q-8 7 -32 34q-31 36 -27 51q19 57 66 200q42 128 67 202q1 1 55 -37q55 -39 51 -52q-45 -121 -127 -313q28 -1 40 8q81 65 111 102q73 223 96 292
q1 1 56 -37q55 -39 50 -52q-44 -121 -127 -313q29 -1 40 8q86 68 130 132q-4 -41 -18 -65q-33 -54 -82 -105q-65 -68 -94 -68q-15 0 -29 13z" />
    <glyph glyph-name="v" unicode="v" horiz-adv-x="371" 
d="M373 463q-2 -7 6 -6q4 0 17 1q15 2 17 2q12 27 19 54l-41 -32q-15 -11 -18 -19zM459 513q15 -20 5 -52q0 -2 78 0q-10 -15 -21 -32q-36 8 -67 7q-48 -115 -120 -214q-51 -72 -146 -147q-70 -55 -89 -62q-37 -14 -40 -13q-49 27 -59 35q-28 23 -16 48q58 120 153 416
q53 -27 88 -51q8 -6 8 -28q-37 -99 -71 -174q-47 -103 -66 -148q16 0 24 6q105 85 190 190q75 92 92 141q-33 1 -41 2q-15 2 -8 29q2 9 40 37q26 20 37 25q4 1 10 0q10 -1 19 -15z" />
    <glyph glyph-name="w" unicode="w" horiz-adv-x="640" 
d="M535 102q27 -1 40 8q84 67 128 131q-4 -41 -18 -64q-33 -54 -81 -105q-65 -67 -94 -67q-14 0 -28 12q-8 7 -32 34q-31 36 -26 51q0 1 1 2q0 3 1 4q-27 -28 -34 -36q-65 -67 -94 -67q-14 0 -28 12q-8 7 -32 34q-31 36 -27 51l2 4q-35 -36 -37 -38q-65 -68 -93 -68
q-15 0 -29 12q-8 8 -31 35q-31 36 -27 50q19 56 66 199q42 127 66 200q0 1 55 -37q54 -38 50 -51q-44 -121 -126 -311q28 -1 40 8q72 58 92 80q89 270 104 315q1 2 55 -36q55 -38 50 -51q-44 -121 -125 -311q28 -1 39 8q72 57 90 77q88 267 104 313q0 2 55 -36
q54 -38 49 -51q-43 -121 -125 -311z" />
    <glyph glyph-name="x" unicode="x" horiz-adv-x="500" 
d="M554 568q33 -23 27 -43q-6 -18 -72 -97q-84 -101 -184 -198q35 -53 87 -133q28 -1 40 9q85 67 129 131q-4 -41 -19 -65q-33 -54 -81 -104q-64 -68 -93 -68q-11 0 -21 6v1q-5 3 -84 100q-16 21 -39 51q-97 -80 -219 -158q-6 0 -12 3q-13 7 -13 22v26q72 30 206 157
q-149 202 -145 236q2 25 55 43q27 9 53 13q70 -130 118 -209q108 119 232 295q18 -7 35 -18z" />
    <glyph glyph-name="y" unicode="y" horiz-adv-x="440" 
d="M56 -172q-6 -79 48 -130q11 28 30 86q22 67 40 118q-99 16 -99 15q-14 -22 -19 -89zM376 171q-51 -142 -84 -230q89 -5 176 10l-38 -67q-77 -9 -157 0q-40 -108 -116 -294l-76 28q-49 76 -65 124q-14 43 -12 98q2 66 29 107q51 22 58 22q1 0 29 -7q33 -7 68 -12
q26 75 60 186q-5 -5 -67 -70q-65 -68 -94 -68q-14 0 -28 12q-9 7 -32 35q-31 36 -27 50q19 56 66 200q42 127 66 200q1 2 55 -37q55 -38 51 -51q-44 -121 -126 -312q28 -1 39 9q87 68 120 113q62 212 87 285q0 1 55 -37t50 -51q-16 -44 -87 -243z" />
    <glyph glyph-name="z" unicode="z" horiz-adv-x="400" 
d="M281 0q-64 18 -208 2q-100 81 -97 92q11 39 77 156q50 35 113 52q126 35 167 110q-21 -3 -49 -8q-63 -10 -83 -7q-22 2 -44 25q-13 14 -8 47q3 17 9 31q34 -8 114 -6q148 4 219 18q-22 -43 -56 -68q11 -12 4 -22q-44 -67 -101 -110q-67 -49 -177 -89q-11 -5 -31 -33
q-27 -40 -34 -92q-1 -3 9 -3q7 1 31 5q73 11 133 16q44 3 61 4q28 1 25 -4q-59 -80 -74 -116z" />
    <glyph glyph-name="braceleft" unicode="{" horiz-adv-x="687" 
d="M224 -87q5 -2 29.5 -2.5t53.5 0.5q33 1 74 2l-23 -82h-175q-9 0 -19 6q-8 5 -18.5 18.5t-21.5 39.5q-2 6 -1 19.5t4 31.5t8 39.5t11 43.5q13 50 31 111l-76 88l146 100q6 15 12 29q5 12 10 24.5t7 21.5q33 85 67.5 131.5t64.5 68t52.5 25t31.5 3.5h164l-35 -83h-152
q-5 0 -11.5 -3.5t-11.5 -8.5q-7 -5 -13 -11q-9 -11 -25 -42.5t-33 -66.5q-19 -40 -41 -88l-128 -100l58 -94q-17 -45 -29 -82q-6 -16 -11 -31.5t-9 -29t-6.5 -23.5t-2.5 -14v-6q0 -9 4.5 -19.5t13.5 -15.5z" />
    <glyph glyph-name="bar" unicode="|" horiz-adv-x="392" 
d="M149 903h109l14 -1060l-121 -8z" />
    <glyph glyph-name="braceright" unicode="}" horiz-adv-x="632" 
d="M447 545q-1 1 -8.5 1.5t-18.5 1t-25 0t-28 -0.5l-76 -2l29 86h167h5q8 -1 18 -8q8 -6 18.5 -19t21.5 -36q2 -7 0.5 -21t-5 -32t-9 -39t-11.5 -42q-14 -49 -33 -108l81 -92l-150 -92q-5 -16 -10 -31q-5 -13 -9.5 -27t-8.5 -22q-30 -84 -63 -129.5t-62 -66.5t-51 -24.5
t-31 -3.5h-161l29 86q34 -2 64 -3q26 -2 51.5 -2.5t39.5 -0.5q4 0 9 3.5t10 8.5t10 12q5 5 12.5 16.5t15.5 26.5t17 32t17 35q19 40 41 90l127 99l-58 91q16 42 29 78q11 31 20 60t9 40q-5 13 -7.5 21.5t-15.5 13.5z" />
    <glyph glyph-name="exclamdown" unicode="&#xa1;" horiz-adv-x="391" 
d="M124 116q-102 -270 -95 -271q44 -10 136 0q79 248 95 290q44 125 22 189q-12 37 -55 60q-1 1 -103 -268zM251 520q19 19 45 19q27 0 46 -19q18 -18 18 -45q0 -26 -18 -45q-19 -18 -46 -18q-26 0 -45 18q-18 19 -18 45q0 27 18 45z" />
    <glyph glyph-name="cent" unicode="&#xa2;" horiz-adv-x="291" 
d="M276 391q1 -8 7 -24q11 -30 25 -22q12 7 12 32q0 10 -16 47q-18 -14 -20 -17q-9 -8 -8 -16zM449 465q6 -1 -28 -36q-46 18 -83 11q-8 -1 -17 -5l4 -8q30 -50 15 -94q-1 -5 -18 -12q-16 -8 -20 -4q-11 12 -30 51q-12 25 -10 41q2 32 29 46l-5 10q-18 11 -28 1
q-40 -38 -68 -84q-49 -80 -90 -214q-12 -38 -14 -75q-3 -44 14 -63q12 -14 34 -1q19 12 54 54q5 5 13 4q7 -1 12 -5q6 -5 8 -12q1 -7 -5 -12q-34 -34 -49 -43q-31 -19 -60 -14q-43 9 -99 72q-14 16 -4 93q11 74 36 145q18 52 54 105q36 52 73 77q22 16 113 3q6 0 26 -36
q17 6 40 8q28 2 103 -3zM126 626h40v-791h-40v791z" />
    <glyph glyph-name="sterling" unicode="&#xa3;" horiz-adv-x="870" 
d="M780 195q39 -10 58.5 -27.5t19.5 -37.5q0 -10 -1.5 -21.5t-11.5 -31.5q-20 -10 -32.5 -19.5t-32.5 -19.5q-59 -20 -111 -20t-111 20q-29 20 -65 31t-66 22l-17 -42.5t-12 -28.5q-6 -13 -10 -21q-5 0 -8 2t-6.5 4.5t-9 4.5t-15.5 2q-10 10 -18 13t-8 13q-39 19 -39 39
q10 11 13 22t13 31q-79 10 -131 8.5t-91 -21.5q-20 -20 -30 -31.5t-10 -21.5q-10 0 -24.5 10t-14.5 30q-39 39 39 78q40 20 108 13.5t167 -26.5q20 39 39 96t39 126l13 26h-52q-10 0 -18 1.5t-8 11.5v53q0 10 8 18t18 8h79q20 49 39 105.5t39 116.5q49 10 81.5 10t61.5 -10
q-9 -24 -20 -57q-10 -29 -24 -70t-34 -95q-10 -10 -13 -21t-13 -31l-13 -40v-13q-29 -59 -52 -127.5t-52 -146.5q29 -10 51.5 -15.5t38 -9t25.5 -6.5t15 -8q39 0 71.5 1.5t72.5 11.5q20 0 31 6.5t21 6.5q19 19 0 39q-10 10 -21 19.5t-31 19.5q-10 0 -13 6.5t-13 6.5
q29 0 50 -6.5t41 -6.5z" />
    <glyph glyph-name="currency" unicode="&#xa4;" 
 />
    <glyph glyph-name="yen" unicode="&#xa5;" horiz-adv-x="1069" 
d="M714 412q-11 -32 -20 -60h-102q-32 -67 -50 -109h119q0 -1 -4 -14q-4 -14 -5 -19q-5 -14 -10 -23l-7 -14q-64 3 -116 5q-5 -31 5 -58q11 -32 36 -46q26 -15 61 -4q40 13 82 59q65 70 152 277q95 222 129 269q5 7 19 5q13 -1 17 -9q121 -78 113 -100q-22 -61 -116 -325
q-68 -191 -113 -309q41 -18 57 -41q17 -22 15 -59q-3 -66 -74 -182q-35 -59 -70 -104q43 75 70 155q56 159 -17 178q-137 -370 -166 -428q-32 -64 -62 -100q-51 -59 -124 -82q-138 -44 -205 -4q-56 33 -59 120q-2 69 27 159q26 76 54 115q70 96 189 176q115 77 222 103
q122 351 137 397q13 36 33 100q23 74 31 99q-35 -82 -72 -179q-72 -190 -122 -265q-38 -57 -108 -80q-64 -21 -137 -11q-70 10 -118 44q-50 37 -51 86q-1 18 9 49h-8q10 31 19 59h12q21 46 56 110h-35l4 13q4 14 6 19q5 14 9 23l7 14q24 -1 47 -3q9 17 20 35q68 115 84 148
q30 60 3 52q-126 -36 -308 -151q-242 -153 -220 -272q17 -87 65 -90q23 -2 44 14q-11 -19 -29 -31q-37 -24 -77 15q-55 52 -62 125q-6 85 62 157q79 85 364 200q127 50 218 71q102 23 129 0q-59 -105 -119 -220q-16 -31 -30 -58q53 -1 90 -1zM509 -626q45 73 117 231
q101 221 123 280q-77 -16 -167 -88q-75 -59 -107 -107q-78 -119 -88 -257q-5 -58 6 -97q10 -39 31 -44q30 -8 85 82z" />
    <glyph glyph-name="brokenbar" unicode="&#xa6;" 
d="M291 624h42v-332h-42v332zM291 166h41v-332h-41v332z" />
    <glyph glyph-name="section" unicode="&#xa7;" 
 />
    <glyph glyph-name="copyright" unicode="&#xa9;" horiz-adv-x="633" 
d="M43 356q0 56 21 105.5t57.5 86.5t85 58.5t104.5 21.5q55 0 104 -21.5t85.5 -58.5t57.5 -86.5t21 -105.5t-21 -105.5t-57.5 -86.5t-85.5 -58.5t-104 -21.5q-56 0 -104.5 21.5t-85 58.5t-57.5 86.5t-21 105.5zM84 355q0 -48 18 -89.5t49 -73t73 -49.5t89 -18t89 18t73 49.5
t49 73t18 89.5t-18 89.5t-49 73t-73 49.5t-89 18t-89 -18t-73 -49.5t-49 -73t-18 -89.5zM374 416q1 0 1 5.5t-0.5 12t-1.5 12t-2 6.5q-3 2 -19 7.5t-45 3.5t-39 -3.5t-15 -12.5q-3 -6 -4 -17.5t-1 -26.5v-32v-32q0 -19 -0.5 -31t0 -20t2 -13.5t5.5 -11.5q8 -13 21 -14.5
t32 -1.5t33 2.5t24 9.5q5 3 7 9t3 12q1 7 1 14h41q2 -16 1 -29q-1 -11 -3.5 -22.5t-8.5 -17.5q-7 -6 -21.5 -9.5t-30.5 -5.5q-18 -3 -39 -3q-22 -1 -40 1q-16 2 -31 6.5t-21 15.5q-8 5 -11 19.5t-4.5 31.5t-1 34.5t0.5 29.5t-0.5 33.5t0.5 44t4 40.5t11 23q15 10 32 12.5
t52 1.5h34t31 -1.5t24.5 -4.5t15.5 -10t6.5 -18t1.5 -22q0 -13 -2 -27q-12 -1 -22 -1h-21z" />
    <glyph glyph-name="guillemotleft" unicode="&#xab;" horiz-adv-x="637" 
d="M321 54l2 -6t3 -14.5t-1 -16.5t-9 -11q-8 -3 -22 6t-31.5 23t-36 30.5t-33.5 28.5q-31 24 -53 49t-26 45q-2 10 -3.5 25.5t-1.5 32t2 31t6 21.5q8 14 36 37.5t65 59.5q38 36 60 52.5t36 14.5q7 -1 10 -6t4 -10q1 -7 -1 -15q-40 -35 -73 -65q-14 -13 -28 -25.5t-25.5 -23
t-20 -18t-11.5 -10.5q-6 -5 -8 -17t-1.5 -25.5t2 -26.5t2.5 -21q0 -6 12 -18.5t29.5 -29t37.5 -33.5t37.5 -31.5t29 -23.5zM496 54l2 -6t3 -14.5t-1 -16.5t-9 -11q-8 -3 -22 6t-31.5 23t-36 30.5t-33.5 28.5q-31 24 -53 49t-26 45q-2 10 -3.5 25.5t-1.5 32t2 31t6 21.5
q8 14 36 37.5t65 59.5q38 36 60 52.5t36 14.5q7 -1 10 -6t4 -10q1 -7 -1 -15q-40 -35 -73 -65q-14 -13 -28 -25.5t-25.5 -23t-20 -18t-11.5 -10.5q-6 -5 -8 -17t-1.5 -25.5t2 -26.5t2.5 -21q0 -6 12 -18.5t29.5 -29t37.5 -33.5t37.5 -31.5t29 -23.5z" />
    <glyph glyph-name="logicalnot" unicode="&#xac;" 
d="M124 457h416v-207h-42v167h-374v40z" />
    <glyph glyph-name="registered" unicode="&#xae;" 
d="M41 356q0 56 21 105.5t58 86.5t86 58.5t105 21.5t105 -21.5t86 -58.5t58 -86.5t21 -105.5t-21 -105.5t-58 -86.5t-86 -58.5t-105 -21.5t-105 21.5t-86 58.5t-58 86.5t-21 105.5zM82 356q0 -47 18 -89t49.5 -73t73 -49t89.5 -18t89.5 18t73 49t49.5 73t18 89t-18 89
t-49.5 73t-73 49t-89.5 18t-89.5 -18t-73 -49t-49.5 -73t-18 -89zM208 499h165q14 0 22.5 -9t13 -23.5t6 -32t0.5 -35.5t-7 -30t-14 -20q-9 -9 -19 -14q-1 -5 -1 -12q0 -6 1 -14t6 -18q4 -11 16.5 -25t26.5 -27q16 -15 34 -31l-42 -1q-9 9 -20 19q-9 8 -19.5 18.5
t-21.5 20.5t-15.5 21.5t-6.5 22.5q-2 12 -1 24h-82l-1 -124q-12 -1 -21 -1q-8 0 -14 -0.5t-6 0.5v291zM368 361q22 16 24 43.5t0.5 38.5t-6 21.5t-18.5 16.5h-118v-120h118z" />
    <glyph glyph-name="degree" unicode="&#xb0;" horiz-adv-x="494" 
d="M106 520q0 29 11 55t30 45.5t45 30.5t55 11t55 -11t45 -30.5t30 -45.5t11 -55t-11 -55t-30 -45.5t-45 -30.5t-55 -11t-55 11t-45 30.5t-30 45.5t-11 55zM128 520q0 -24 9.5 -46t26 -38t38 -25.5t46.5 -9.5q24 0 46 9.5t38.5 25.5t26 38t9.5 46t-9.5 46t-26 38t-38.5 25.5
t-46 9.5q-25 0 -46.5 -9.5t-38 -25.5t-26 -38t-9.5 -46z" />
    <glyph glyph-name="plusminus" unicode="&#xb1;" 
d="M125 292h166v165h42v-165h166v-42h-166v-167h-42v167h-166v42z" />
    <glyph glyph-name="mu" unicode="&#xb5;" 
 />
    <glyph glyph-name="paragraph" unicode="&#xb6;" 
d="M117 698h325l-1 -38l-74 -1l1 -659h-37l-1 659h-110v-659h-34l-3 365q-51 -1 -91 17q-17 7 -33.5 19t-29.5 30t-21 42.5t-8 57.5q1 45 14.5 75.5t32.5 50t38.5 29t31.5 12.5z" />
    <glyph glyph-name="periodcentered" unicode="&#xb7;" 
d="M291 375h83v-125h-83v125z" />
    <glyph glyph-name="cedilla" unicode="&#xb8;" 
d="M333 1l1 -40l82 -4l-1 -79q0 -6 -2 -12q-2 -5 -4 -11t-7 -10q-5 -5 -9.5 -6.5t-9.5 -2.5t-10 -1h-124v39h127v41l-85 3q1 23 1 41v42h41z" />
    <glyph glyph-name="onesuperior" unicode="&#xb9;" 
d="M291 581q1 -2 -5.5 -8.5l-14.5 -14.5q-10 -9 -21 -20l-43 3l1 42l42 42l81 -2l2 -249l83 -1l-1 -39h-208v40l84 1q-1 58 -1 104v38v33t0.5 22.5z" />
    <glyph glyph-name="ordmasculine" unicode="&#xba;" horiz-adv-x="328" 
d="M208 582q0 -1 6.5 6t14.5 15q9 10 21 22h166l42 -43l1 -206l-42 -42h-167l-43 40v104v38v33.5t0.5 23.5zM249 375h167v208h-167v-208z" />
    <glyph glyph-name="guillemotright" unicode="&#xbb;" 
d="M125 416l7 -7l18.5 -18.5l26.5 -26.5t31 -30q37 -36 83 -83l-1 -46l-166 -162v-43l43 -1l166 167v125l-167 166h-41v-21v-20zM125 416l7 -7l18.5 -18.5l26.5 -26.5t31 -30q37 -36 83 -83l-1 -46l-166 -162v-43l43 -1l166 167v125l-167 166h-41v-21v-20zM125 436v21h41
l167 -166v-125l-166 -167l-43 1v43l166 162l1 46q-46 47 -83 83q-16 15 -31 30l-26.5 26.5l-18.5 18.5l-7 7v20v21h41l167 -166v-125l-166 -167l-43 1v43l166 162l1 46q-46 47 -83 83q-16 15 -31 30l-26.5 26.5l-18.5 18.5l-7 7v20zM292 436v21h41l167 -166v-125l-166 -167
l-43 1v43l166 162l1 46q-46 47 -83 83q-16 15 -31 30l-26.5 26.5l-18.5 18.5l-7 7v20v21h41l167 -166v-125l-166 -167l-43 1v43l166 162l1 46q-46 47 -83 83q-16 15 -31 30l-26.5 26.5l-18.5 18.5l-7 7v20v21h41l167 -166v-125l-166 -167l-43 1v43l166 162l1 46
q-46 47 -83 83q-16 15 -31 30l-26.5 26.5l-18.5 18.5l-7 7v20v21h41l167 -166v-125l-166 -167l-43 1v43l166 162l1 46q-46 47 -83 83q-16 15 -31 30l-26.5 26.5l-18.5 18.5l-7 7v20z" />
    <glyph glyph-name="onequarter" unicode="&#xbc;" 
 />
    <glyph glyph-name="questiondown" unicode="&#xbf;" horiz-adv-x="512" 
d="M265 441q20 19 47 20q26 0 44 -19q20 -18 20 -44q1 -27 -18 -46q-18 -19 -45 -19q-26 0 -46 18q-19 18 -19 45q0 26 17 45zM241 -241q91 -8 146 37q42 33 58 77q13 34 12 84q-1 47 -38 97q-18 25 -35 40l-49 -125q11 -12 18 -31q14 -37 -9 -74q-26 -43 -73 -44
q-48 -1 -73 38q-20 29 -8 58q13 31 52 50q34 16 59 77q11 30 17 57q26 100 3 153q-15 31 -54 52q1 1 -72 -198q-22 -47 -87 -99q-40 -32 -38 -85q2 -49 40 -101q39 -54 131 -63z" />
    <glyph glyph-name="OE" unicode="&#x152;" horiz-adv-x="1061" 
d="M890 289q28 1 50 -6q19 -7 34.5 -23t15.5 -49q0 -19 -22.5 -46.5t-62 -55t-93.5 -52t-115.5 -39t-129 -15.5t-134.5 18q-33 9 -52 24.5t-36 32.5h-11q-42 -43 -88 -60.5t-79 -17.5q-42 0 -68.5 14.5t-43.5 40.5q-33 51 -33 133q0 43 7 77.5t15 67.5q8 26 25 56.5t42 54.5
q26 17 49 31t40 14q25 0 41.5 -7t24.5 -15v-12h-11q-33 0 -66 -30t-67 -81q-26 -50 -40.5 -103.5t-14.5 -95.5q0 -59 17.5 -87t60.5 -37q25 0 44.5 6.5t37 20t35.5 35t39 50.5q-9 25 -11 51.5t1 51.5t11 47t21 39q25 25 49.5 43.5t49.5 35.5q8 41 9.5 75.5t1.5 69.5
q-8 49 -29 78t-70 21q-54 0 -92.5 -16t-65 -39t-42 -48t-23.5 -42q-13 -13 -22.5 -33t-17.5 -40q-9 -23 -16 -49q1 35 8 72q6 32 19.5 68.5t39.5 70.5q29 33 61.5 55t63 35t56 18t42.5 5q58 0 105.5 -31t71.5 -82q0 8 1.5 16.5t9.5 17.5q21 42 57.5 60.5t76.5 21.5t77 -5.5
t58 -21.5q8 -8 17 -16.5t26 -16.5q5 12 12 22.5t15 18.5q9 9 18 16v-13q-8 -8 -12.5 -18t-6.5 -19t-2.5 -17t-0.5 -12q0 -9 5 -11q3 -2 6 -1h-11q0 -16 5 -24l6 -8l-45 -33q-3 13 -4 26q-1 11 -1 24.5t5 26.5q-8 0 -22.5 5.5t-31.5 5.5q-39 8 -74.5 5.5t-64 -13t-48.5 -27
t-28 -35.5t-3 -38.5t27 -36.5q17 -17 42 -22.5t48 -5.5q26 0 55 6l-56 -134q-20 6 -43 10q-20 3 -46.5 4t-55.5 -3q-8 -25 -17 -44t-26 -44q-26 -42 -52.5 -77t-60.5 -68q34 -8 83 -15t107 -7q37 0 88 7.5t101.5 21t92.5 31.5t63 39q17 21 15.5 39.5t-9.5 32.5
q-10 16 -28 29zM556 467v-23q17 0 32.5 -1.5t28.5 -3.5q15 -3 29 -5q-17 3 -33 9q-14 5 -29.5 13.5t-27.5 21.5v-11z" />
    <glyph glyph-name="oe" unicode="&#x153;" horiz-adv-x="635" 
d="M440 273q-6 6 -23 28q-25 -58 -48 -134q-12 -37 -14 -74q-3 -45 14 -63q4 -5 6 -5q15 3 40 37q28 36 51 84q-34 0 -40 1q-15 2 -9 29q2 9 39 38q26 19 38 23q5 2 6 0q10 -9 19 -21q17 -24 11 -40q41 4 73 6q-16 -23 -27 -40q-26 6 -58 4q-18 -41 -53 -89q-40 -57 -87 -57
q-2 0 -16 7q-45 21 -85 66q-12 13 -7 71q-12 -23 -26 -45q-26 -42 -48 -63q-36 -31 -59 -35l-12 -1q-44 2 -97 33q-22 16 -23 22l-1 7q-25 181 100 351q78 105 162 88q5 -1 7 -5l-7 -18q41 12 62 -14q15 -19 21 -63v-7q6 11 14 22q36 52 73 77q13 9 42 9q8 0 25 -1t26 -1
q12 0 49 -26q39 -30 41 -54q3 -38 -35 -91q-24 -34 -61 -49q-4 -3 -26 -7q-28 -6 -40 -9q-7 -2 -17 9zM94 36q22 -2 80 82q52 71 78 133q-26 -5 -38 -5q-16 0 -26 9q-6 7 -13 22q-6 15 -4 20q22 52 58 119q-42 -20 -112 -174q-24 -51 -35 -123q-14 -80 12 -83zM546 458
q-12 15 -19 8q-54 -52 -92 -128q-2 4 14 -38q7 -17 13 -17q14 -1 43 34q9 11 18 24q9 11 8 11q27 39 27 82q0 10 -12 24zM212 271q10 -5 49 2q30 76 25 110q-2 12 -8 17l-4 4q-2 1 -2 2q-3 -2 -30 -40q-31 -44 -43 -70q-1 -4 4 -13q5 -10 9 -12zM437 173q-2 -7 6 -6
q4 0 17 1q14 2 17 2q12 28 20 55q-1 0 -42 -32q-15 -12 -18 -20z" />
    <glyph glyph-name="Scaron" unicode="&#x160;" horiz-adv-x="875" 
d="M706 860q2 0 -10 -14.5t-32 -37.5t-35 -38t-37 -19q-11 -2 -22 3t-21.5 14t-21 21t-21.5 24t-18 20t-11.5 13.5t-7 9.5t-5.5 7q-1 0 6.5 0t18 -0.5t21 -2.5t16.5 -6t13.5 -14t15.5 -20.5t16 -19t15 -8.5t14 7t14.5 16.5t14 20t12.5 18.5q6 7 16.5 9t21 1t19 -2.5z
M837 483q-35 -32 -72 -56q15 24 27 53q23 60 9 90q-25 52 -171 69q-131 16 -218 -5q-76 -18 -100 -65q-12 -22 -6 -44q5 -24 29 -44q38 -33 197 -96q212 -84 223 -90q70 -32 85 -86q15 -49 -19 -100q-34 -50 -101 -80q-73 -33 -158 -29h-40q-37 -1 -66 -1q-99 2 -178 24
q-90 26 -163 88q-64 55 -97 123q-31 64 -19 108q13 47 71 45q103 -2 226 -249q62 -123 103 -246q-52 133 -123 254q-142 243 -234 179q-53 -36 -16 -91q34 -48 128 -96q93 -46 200 -68q115 -24 199 -7q58 11 92 39q29 23 35 57q7 29 -6 58q-12 28 -35 45q-12 8 -93 51
q-86 47 -138 81q-177 115 -134 193q44 80 264 104q74 8 151 8q66 0 76 -4q21 -8 29 -27q21 -4 43 -17q46 -25 58 -64q11 -39 -58 -104z" />
    <glyph glyph-name="scaron" unicode="&#x161;" horiz-adv-x="352" 
d="M427 648q2 0 -10 -14.5t-32 -37.5t-35 -38t-37 -19q-11 -2 -22 3t-21.5 14t-21 21t-21.5 24t-18 20t-11.5 13.5t-7 9.5t-5.5 7q-1 0 6.5 0t18 -0.5t21 -2.5t16.5 -6t13.5 -14t15.5 -20.5t16 -19t15 -8.5t14 7t14.5 16.5t14 20t12.5 18.5q6 7 16.5 9t21 1t19 -2.5z
M223 385l-10 -5q-28 -13 -57 -1q-10 5 -13 10q-2 6 8 9q25 9 119 81q7 10 13 15q13 12 39 5q23 -6 46 -24q22 -19 31 -38q9 -21 -4 -33q-20 -18 -44 -34q-18 -13 -21 -18q-9 -11 -11 -76q-1 -47 -13 -134q49 45 95 98q0 -44 -18 -65q-57 -64 -91 -97q-45 -46 -62 -51
q-77 -40 -146 -21q-46 14 -70 66q-25 53 -6 109q19 55 105 118q21 -17 31 -34q9 -15 8 -51t-13 -45q-10 -7 -25 -12q-12 -4 -27 -17q-7 -7 -10 -22q-4 -16 -1 -33q7 -42 49 -50q32 -5 56 33q16 25 26 64q11 41 8 118q-3 83 4 120q2 7 4 15z" />
    <glyph glyph-name="Ydieresis" unicode="&#x178;" horiz-adv-x="1069" 
d="M776 785q0 15 10.5 25.5t24.5 10.5q15 0 25.5 -10.5t10.5 -25.5q0 -14 -10.5 -24.5t-25.5 -10.5q-14 0 -24.5 10.5t-10.5 24.5zM902 787q0 14 9 24t23 10t24.5 -10t10.5 -24t-10.5 -23.5t-24.5 -9.5t-23 9.5t-9 23.5zM509 -626q45 73 117 231q101 221 123 280
q-77 -16 -167 -88q-75 -59 -107 -107q-78 -119 -88 -257q-5 -58 6 -97q10 -39 31 -44q30 -8 85 82zM1003 680q13 -1 17 -9q121 -78 113 -100q-22 -61 -116 -325q-68 -191 -113 -309q41 -18 57 -41q17 -22 15 -59q-3 -66 -74 -182q-35 -59 -70 -104q43 75 70 155
q56 159 -17 178q-137 -370 -166 -428q-32 -64 -62 -100q-51 -59 -124 -82q-138 -44 -205 -4q-56 33 -59 120q-2 69 27 159q26 76 54 115q70 96 189 176q115 77 222 103q122 351 137 397q13 36 33 100q23 74 31 99q-35 -82 -72 -179q-72 -190 -122 -265q-38 -57 -108 -80
q-64 -21 -137 -11q-70 10 -118 44q-50 37 -51 86q-2 70 146 319q68 115 84 148q30 60 3 52q-126 -36 -308 -151q-242 -153 -220 -272q17 -87 65 -90q23 -2 44 14q-11 -19 -29 -31q-37 -24 -77 15q-55 52 -62 125q-6 85 62 157q79 85 364 200q127 50 218 71q102 23 129 0
q-59 -105 -119 -220q-121 -231 -133 -287q-8 -34 3 -64q11 -32 36 -46q26 -15 61 -4q40 13 82 59q65 70 152 277q95 222 129 269q5 7 19 5z" />
    <glyph glyph-name="circumflex" unicode="&#x2c6;" horiz-adv-x="352" 
d="M232 566q1 -4 -2 -7t-7 -5.5t-9 -5l-9 -4.5q-10 25 -20 51q-8 22 -17.5 47t-17.5 47l-55 -145q-4 2 -9.5 4.5t-10 5t-6.5 5.5t0 7q5 10 13 31.5t16.5 47t16.5 51t13 42.5h2q2 0 7 3h13h13q3 -3 5 -3h2q6 -17 14.5 -42.5t17.5 -51t17 -47t13 -31.5z" />
    <glyph glyph-name="tilde" unicode="&#x2dc;" 
d="M187 543h-21q-1 21 -1 35t16 32q5 5 10.5 9t10.5 6q6 3 12 5q6 1 15.5 3t21 0t24.5 -9t26 -23q5 -8 14 -11.5t17 -5.5q10 -2 19 -2q10 -1 19 0l16 2t13 6q5 4 7 10t4 11q2 6 2 13h45q1 -23 -2.5 -37t-15.5 -28q-5 -7 -14 -11t-18 -7q-11 -4 -23 -6q-47 -3 -70.5 4.5
t-35 17t-18 18t-19.5 8.5t-19.5 -6.5t-9.5 -14t-3.5 -13.5l-0.5 -6h-21z" />
    <glyph glyph-name="endash" unicode="&#x2013;" 
d="M125 291h374v-41h-374v41z" />
    <glyph glyph-name="emdash" unicode="&#x2014;" 
d="M41 291h541v-41h-541v41z" />
    <glyph glyph-name="quoteleft" unicode="&#x2018;" horiz-adv-x="302" 
d="M141 421q-1 0 -12 5t-24.5 11t-24.5 11t-11 4t-1.5 8t4.5 30.5t22 57.5t50 89q5 8 18.5 6.5t27.5 -7.5q17 -7 37 -19q-1 -5 -2 -9q-2 -4 -3.5 -8t-5.5 -9q-8 -8 -19 -6.5t-22 7.5q-6 2 -9.5 -1.5t-5.5 -9.5t-2.5 -13t-1.5 -13q-2 -12 3.5 -17.5t19.5 -12.5q7 -3 2.5 -20
t-13 -35.5t-17.5 -33.5t-10 -15z" />
    <glyph glyph-name="quoteright" unicode="&#x2019;" horiz-adv-x="313" 
d="M167 650q1 0 12.5 -4.5t25 -10.5t24.5 -10.5t11 -3.5t1.5 -8t-3.5 -31t-20 -58.5t-48 -90.5q-5 -9 -18.5 -7t-27.5 7q-17 6 -37 18q0 4 1 8q2 9 9 18q8 9 19 7.5t22 -6.5q6 -2 9.5 1.5t5 9.5t2 13t1.5 13q2 12 -4 17.5t-20 11.5q-7 3 -3 20t12 36t16.5 34.5t9.5 15.5z
" />
    <glyph glyph-name="quotedblleft" unicode="&#x201c;" horiz-adv-x="475" 
d="M141 421q-1 0 -12 5t-24.5 11t-24.5 11t-11 4t-1.5 8t4.5 30.5t22 57.5t50 89q5 8 18.5 6.5t27.5 -7.5q17 -7 37 -19q-1 -5 -2 -9q-2 -4 -3.5 -8t-5.5 -9q-8 -8 -19 -6.5t-22 7.5q-6 2 -9.5 -1.5t-5.5 -9.5t-2.5 -13t-1.5 -13q-2 -12 3.5 -17.5t19.5 -12.5q7 -3 2.5 -20
t-13 -35.5t-17.5 -33.5t-10 -15zM292 418q-1 0 -12 5t-24.5 11t-24.5 11t-11 4t-1.5 8t4.5 30.5t22 57.5t50 89q5 8 18.5 6.5t27.5 -7.5q17 -7 37 -19q-1 -5 -2 -9q-2 -4 -3.5 -8t-5.5 -9q-8 -8 -19 -6.5t-22 7.5q-6 2 -9.5 -1.5t-5.5 -9.5t-2.5 -13t-1.5 -13
q-2 -12 3.5 -17.5t19.5 -12.5q7 -3 2.5 -20t-13 -35.5t-17.5 -33.5t-10 -15z" />
    <glyph glyph-name="quotedblright" unicode="&#x201d;" horiz-adv-x="449" 
d="M144 650q1 0 12.5 -4.5t25 -10.5t24.5 -10.5t11 -3.5t1.5 -8t-3.5 -31t-20 -58.5t-48 -90.5q-5 -9 -18.5 -7t-27.5 7q-17 6 -37 18q0 4 1 8q2 9 9 18q8 9 19 7.5t22 -6.5q6 -2 9.5 1.5t5 9.5t2 13t1.5 13q2 12 -4 17.5t-20 11.5q-7 3 -3 20t12 36t16.5 34.5t9.5 15.5z
M144 650q1 0 12.5 -4.5t25 -10.5t24.5 -10.5t11 -3.5t1.5 -8t-3.5 -31t-20 -58.5t-48 -90.5q-5 -9 -18.5 -7t-27.5 7q-17 6 -37 18q0 4 1 8q2 9 9 18q8 9 19 7.5t22 -6.5q6 -2 9.5 1.5t5 9.5t2 13t1.5 13q2 12 -4 17.5t-20 11.5q-7 3 -3 20t12 36t16.5 34.5t9.5 15.5z
M294 650q1 0 12.5 -4.5t25 -10.5t24.5 -10.5t11 -3.5t1.5 -8t-3.5 -31t-20 -58.5t-48 -90.5q-5 -9 -18.5 -7t-27.5 7q-17 6 -37 18q0 4 1 8q2 9 9 18q8 9 19 7.5t22 -6.5q6 -2 9.5 1.5t5 9.5t2 13t1.5 13q2 12 -4 17.5t-20 11.5q-7 3 -3 20t12 36t16.5 34.5t9.5 15.5z" />
    <glyph glyph-name="dagger" unicode="&#x2020;" 
d="M162 416h129v213h81v-213h120v-81h-120v-494h-81v494h-129v81z" />
    <glyph glyph-name="daggerdbl" unicode="&#x2021;" 
d="M165 416h126v213h81v-213h125v-81h-125v-251h123v-84h-123v-162h-81v162h-126v84h126v251h-126v81z" />
    <glyph glyph-name="bullet" unicode="&#x2022;" 
d="M207 314q0 21 8 40t22 33t33 22t40 8t40 -8t33.5 -22t22.5 -33t8 -40t-8 -40t-22.5 -33t-33.5 -22t-40 -8t-40 8t-33 22t-22 33t-8 40z" />
    <glyph glyph-name="guilsinglright" unicode="&#x203a;" 
d="M207 414l-2 6t-3 14t0.5 16.5t9.5 11.5q7 3 21.5 -6t32 -23t36 -30.5t33.5 -28.5q31 -23 53.5 -48t26.5 -45q2 -10 3 -25.5t1 -32t-1.5 -31t-5.5 -21.5q-8 -14 -36 -38t-65 -60t-59 -52.5t-36 -14.5q-8 1 -10.5 5.5t-3.5 10.5t1 15q39 35 72 65q28 26 53 48.5t32 28.5
q6 6 8 17.5t1.5 25t-2 27t-2.5 21.5q-1 5 -12.5 18t-29 29t-38 33.5t-38 31.5t-29 23z" />
    <glyph glyph-name="trademark" unicode="&#x2122;" 
d="M83 624h208v-41h-83v-292h-42v292h-83v41zM333 624h43v-11q0 -5 -0.5 -11.5t-0.5 -12.5q-1 -15 -1 -34l2 -3v-261h-43v333zM541 549l2 3l-2 73h42v-334h-42v258zM376 624l3 -5.5t9 -14t13.5 -19.5t15.5 -22q18 -27 41 -61l83 123v-76l-82 -112l-83 115v72z" />
    <glyph glyph-name="minus" unicode="&#x2212;" 
d="M125 333h416v-42h-416v42z" />
    <glyph glyph-name="_0141" horiz-adv-x="295" 
d="M317 477q21 -18 28 -39q12 -42 -9 -104q-3 -9 -20 -18q-22 -12 -45 -2q35 75 38 95q2 19 -7 35q-7 14 -17 20q-17 11 -28 1q-40 -38 -68 -84q-48 -80 -90 -214q-12 -37 -14 -74q-2 -45 14 -63q13 -14 34 -1q19 12 55 53q4 5 12 5q7 -1 13 -5q6 -6 7 -12q2 -7 -4 -13
q-35 -33 -50 -42q-30 -19 -60 -14q-42 9 -98 72q-14 16 -4 93q11 73 36 144q18 52 54 105q36 52 72 77q20 14 113 3q18 -2 38 -18z" />
    <glyph glyph-name="_0142" horiz-adv-x="286" 
d="M254 341l8 11q27 39 27 81q0 10 -12 25q-12 14 -19 8q-54 -52 -92 -128q-2 4 14 -38q7 -17 12 -17q14 -1 43 33q10 12 19 25zM309 473q39 -29 41 -53q3 -39 -36 -92q-23 -33 -60 -48q-4 -3 -26 -8q-29 -5 -40 -9q-7 -2 -17 9q-6 6 -23 29q-25 -58 -48 -134
q-13 -37 -14 -74q-3 -45 14 -63q4 -6 6 -5q15 3 40 34q26 34 51 86q32 70 34 91q10 -8 19 -20q17 -24 10 -40q-24 -68 -64 -120q-43 -56 -87 -56q-2 0 -16 7q-45 21 -85 66q-14 16 -4 93q11 73 36 145q18 52 54 104q36 53 72 78q14 9 43 9q8 0 25 -1t25 -1q12 0 50 -27z" />
  </font>
</defs>
</svg>
