<svg class="svg-inline--fa fa-google-plus-g fa-w-20" aria-hidden="true" focusable="false" data-prefix="fab" data-icon="google-plus-g" role="img" xmlns="http://www.w3.org/2000/svg" viewBox="-150 -170 900 900" data-fa-i2svg="">
<linearGradient id="gradient" x1="0" y1="1" x2="0" y2="0">
	<stop offset="0%" stop-color="green"/>
	<stop offset="20%" stop-color="green"/>
	<stop offset="50%" stop-color="blue"/>
	<stop offset="80%" stop-color="red"/>  
	<stop offset="100%" stop-color="red"/>
</linearGradient>
<path fill="url(#gradient)" d="M386.061 228.496c1.834 9.692 3.143 19.384 3.143 31.956C389.204 370.205 315.599 448 204.8 448c-106.084 0-192-85.915-192-192s85.916-192 192-192c51.864 0 95.083 18.859 128.611 50.292l-52.126 50.03c-14.145-13.621-39.028-29.599-76.485-29.599-65.484 0-118.92 54.221-118.92 121.277 0 67.056 53.436 121.277 118.92 121.277 75.961 0 104.513-54.745 108.965-82.773H204.8v-66.009h181.261zm185.406 6.437V179.2h-56.001v55.733h-55.733v56.001h55.733v55.733h56.001v-55.733H627.2v-56.001h-55.733z"></path>
<circle r="10%" cx="34.85%" cy="-12.5%" fill="yellow" ></circle>
  <circle r="10%" cx="64.65%" cy="-0.15%" fill="yellow" ></circle>
  
  <circle r="10%" cx="77.5%" cy="30%" fill="yellow" ></circle>
  <circle r="10%" cx="64.65%" cy="60.15%" fill="yellow" ></circle>
  
  <circle r="10%" cx="34.85%" cy="72.5%" fill="yellow" ></circle>
  <circle r="10%" cx="4.35%" cy="60.15%" fill="yellow" ></circle>
  
  <circle r="10%" cx="-8%" cy="30%" fill="yellow" ></circle>
  <circle r="10%" cx="4.35%" cy="-0.15%" fill="yellow" ></circle>
</svg>