<svg class="svg-inline--fa fa-linkedin-in fa-w-14" aria-hidden="true" focusable="false" data-prefix="fab" data-icon="linkedin-in" role="img" xmlns="http://www.w3.org/2000/svg" viewBox="-250 -170 900 900" data-fa-i2svg="">
<linearGradient id="gradient" x1="0" y1="1" x2="0" y2="0">
	<stop offset="0%" stop-color="green"/>
	<stop offset="20%" stop-color="green"/>
	<stop offset="50%" stop-color="blue"/>
	<stop offset="80%" stop-color="red"/>  
	<stop offset="100%" stop-color="red"/>
</linearGradient>
<path fill="url(#gradient)" d="M100.28 448H7.4V148.9h92.88zM53.79 108.1C24.09 108.1 0 83.5 0 53.8a53.79 53.79 0 0 1 107.58 0c0 29.7-24.1 54.3-53.79 54.3zM447.9 448h-92.68V302.4c0-34.7-.7-79.2-48.29-79.2-48.29 0-55.69 37.7-55.69 76.7V448h-92.78V148.9h89.08v40.8h1.3c12.4-23.5 42.69-48.3 87.88-48.3 94 0 111.28 61.9 111.28 142.3V448z"></path>
<circle r="10%" cx="19.85%" cy="-12.5%" fill="yellow" ></circle>
  <circle r="10%" cx="49.65%" cy="-0.15%" fill="yellow" ></circle>
  <circle r="10%" cx="62.5%" cy="30%" fill="yellow" ></circle>
  <circle r="10%" cx="49.65%" cy="60.15%" fill="yellow" ></circle>
  
  <circle r="10%" cx="19.85%" cy="72.5%" fill="yellow" ></circle>
  <circle r="10%" cx="-10.65%" cy="60.15%" fill="yellow" ></circle>
  <circle r="10%" cx="-23%" cy="30%" fill="yellow" ></circle>
  <circle r="10%" cx="-10.65%" cy="-0.15%" fill="yellow" ></circle>
</svg>