<svg xmlns="http://www.w3.org/2000/svg" width="111.72" height="176.66" viewBox="0 0 111.72 176.66">
	<style type="text/css">
		.st1{fill:#7ac142;}
		.st0{fill:#002341;}
	</style>
	<path class="st0" d="M48.26,55.22C47.9,56.64 47.51,57.97 47.25,59.32C45.43,68.75 46.98,77.74 50.99,86.37C54.78,94.55 60.31,101.41 67.13,107.25C74.41,113.49 81.13,120.24 86.5,128.24C95.48,141.6 92.37,157.2 84.07,166.71C77.69,174.03 69.09,176.99 59.46,176.63C51.04,176.32 44.61,172.14 39.3,165.85C32.91,158.3 32.75,149.82 35.35,140.89C36.96,135.35 39.57,130.39 43.95,126.5C44.27,126.22 44.55,125.87 45.1,125.76C43.95,129.23 43.08,132.7 42.56,136.25C41.86,140.91 41.68,145.57 42.73,150.19C44.62,158.45 49.89,163.2 58.09,164.87C60.17,165.29 62.28,165.55 64.4,165.26C68.25,164.74 71.3,162.83 73.21,159.5C77.33,152.29 78.08,144.62 75.47,136.76C74.23,133.04 71.55,130.12 68.96,127.23C63.4,121.04 57.42,115.26 51.72,109.21C46.24,103.38 42.11,96.77 40.31,88.88C38.35,80.28 39.56,71.99 43.02,63.97C44.19,61.25 45.62,58.67 47.29,56.23C47.53,55.89 47.68,55.44 48.26,55.22"/>
	<path class="st0" d="M101.64,42C101.19,42.1 101.06,41.85 100.89,41.71C93.71,35.81 85.56,32.27 76.23,31.76C68.88,31.35 61.97,33.17 55.51,36.62C48.45,40.39 42.15,45.08 37.9,52.08C34.14,58.26 32.42,65.04 32,72.2C31.75,76.53 32.01,80.82 32.78,85.09C32.85,85.46 32.86,85.84 32.82,86.24C30.99,83.28 29.61,80.13 28.42,76.89C26.13,70.65 24.82,64.23 25.12,57.55C25.57,47.72 29.69,39.7 37.36,33.6C44.43,27.99 52.42,24.31 61.42,23.12C70.47,21.92 78.87,23.98 86.67,28.59C92.38,31.97 97.22,36.33 101.32,41.53C101.42,41.65 101.49,41.79 101.64,42"/>
	<path class="st0" d="M28.52,26.78C28.5,34.65 22.11,41.04 14.26,41.04C6.24,41.03 -0.03,34.62 0,26.45C0.03,18.73 6.53,12.5 14.53,12.51C22.17,12.53 28.54,19.03 28.52,26.78"/>
	<path class="st0" d="M29.44,11.77C29.43,5.37 34.4,0.36 40.78,0.35C47.13,0.34 52.23,5.39 52.24,11.7C52.25,18 47.14,23.14 40.84,23.16C34.52,23.18 29.44,18.11 29.44,11.77"/>
	<path class="st1" d="M111.72,72.26C92.42,76.56 81.07,88.8 76.38,107.85C75.52,107.03 74.72,106.27 73.93,105.5C72.04,103.65 70.05,101.92 67.97,100.29C67.31,99.77 67.15,99.33 67.53,98.51C73.63,85.44 83.51,76.9 97.61,73.44C102.26,72.3 106.99,72.01 111.72,72.26"/>
	<path class="st0" d="M67.12,0C72.25,0 76.29,3.96 76.31,9.05C76.34,14.16 72.24,18.25 67.11,18.24C62.12,18.22 58.05,14.15 58.04,9.15C58.02,4.06 62.05,0 67.12,0"/>
	<path class="st1" d="M53.6,79.47C53.6,74.48 57.81,70.32 62.8,70.35C67.82,70.39 71.96,74.57 71.92,79.57C71.88,84.58 67.69,88.74 62.71,88.69C57.69,88.65 53.59,84.5 53.6,79.47"/>
	<path class="st0" d="M96.72,15.98C96.72,20.15 93.54,23.34 89.39,23.32C85.31,23.3 82.15,20.1 82.15,15.99C82.16,11.93 85.4,8.67 89.44,8.67C93.48,8.67 96.71,11.92 96.72,15.98"/>
</svg>